<!DOCTYPE svg PUBLIC "-//W3C//DTD SVG 20010904//EN" "http://www.w3.org/TR/2001/REC-SVG-20010904/DTD/svg10.dtd">
<svg version="1.0" xmlns="http://www.w3.org/2000/svg" width="144px" height="100px" viewBox="0 0 1440 1000" preserveAspectRatio="xMidYMid meet">
<g id="layer101" fill="#d01115" stroke="none">
 <path d="M0 500 l0 -500 720 0 720 0 0 500 0 500 -720 0 -720 0 0 -500z"/>
 </g>
<g id="layer102" fill="#c01e22" stroke="none">
 <path d="M0 500 l0 -500 720 0 720 0 0 500 0 500 -720 0 -720 0 0 -500z m875 180 c3 -5 4 -10 1 -10 -3 0 -8 5 -11 10 -3 6 -4 10 -1 10 3 0 8 -4 11 -10z m-88 -37 c-4 -3 -7 0 -7 7 0 7 3 10 7 7 3 -4 3 -10 0 -14z m30 10 c-4 -3 -10 -3 -14 0 -3 4 0 7 7 7 7 0 10 -3 7 -7z m73 -9 c0 -8 -5 -12 -10 -9 -6 4 -8 11 -5 16 9 14 15 11 15 -7z m-313 -21 c-4 -3 -7 0 -7 7 0 7 3 10 7 7 3 -4 3 -10 0 -14z m233 13 c0 -3 -5 -8 -12 -12 -7 -4 -8 -3 -4 4 7 12 16 16 16 8z m-21 -46 c0 -10 -3 -8 -9 5 -12 27 -12 43 0 25 5 -8 9 -22 9 -30z m-297 -12 c-10 -22 -11 -21 -11 12 -1 26 2 31 11 22 8 -8 8 -17 0 -34z m395 15 c-4 -3 -7 0 -7 7 0 7 3 10 7 7 3 -4 3 -10 0 -14z m-290 -10 c-4 -3 -7 0 -7 7 0 7 3 10 7 7 3 -4 3 -10 0 -14z m28 7 c3 -5 4 -10 1 -10 -3 0 -8 5 -11 10 -3 6 -4 10 -1 10 3 0 8 -4 11 -10z m90 -10 c4 -6 -10 -10 -35 -10 -25 0 -39 4 -35 10 3 6 19 10 35 10 16 0 32 -4 35 -10z m22 -7 c-4 -3 -7 0 -7 7 0 7 3 10 7 7 3 -4 3 -10 0 -14z m162 -30 c0 -33 -1 -35 -9 -15 -8 20 -4 52 6 52 2 0 4 -17 3 -37z m-252 -80 c-3 -2 -12 15 -22 39 -28 69 -27 78 0 19 14 -29 24 -55 22 -58z m66 90 c-13 -2 -33 -2 -45 0 -13 2 -3 4 22 4 25 0 35 -2 23 -4z m22 -40 l-6 -28 15 25 c23 37 18 11 -5 -30 -13 -23 -18 -27 -13 -11 4 15 2 21 -5 17 -7 -5 -7 2 0 24 14 38 21 39 14 3z m-253 -40 c-7 -36 -12 -27 -11 20 0 30 3 36 8 23 4 -11 6 -30 3 -43z m175 20 c-4 -3 -7 0 -7 7 0 7 3 10 7 7 3 -4 3 -10 0 -14z m252 -35 c0 -35 -2 -39 -9 -21 -8 19 -3 63 6 63 2 0 4 -19 3 -42z m-230 -8 c11 -24 11 -24 -3 -6 -9 11 -16 24 -16 30 0 12 5 7 19 -24z m28 3 c-4 -3 -7 0 -7 7 0 7 3 10 7 7 3 -4 3 -10 0 -14z m-37 -38 c0 -5 -5 -3 -10 5 -5 8 -10 20 -10 25 0 6 5 3 10 -5 5 -8 10 -19 10 -25z m30 -26 c-11 -24 -20 -39 -20 -32 0 6 -3 20 -6 30 -4 13 -3 14 4 5 7 -10 12 -6 22 18 7 17 14 29 17 27 2 -2 -6 -24 -17 -48z m-225 -4 c0 -18 -3 -31 -7 -28 -5 2 -8 20 -8 40 0 20 3 33 8 29 4 -4 7 -23 7 -41z m442 -7 c-3 -7 -5 -2 -5 12 0 14 2 19 5 13 2 -7 2 -19 0 -25z m-17 -28 c-8 -5 -19 -10 -25 -10 -5 0 -3 5 5 10 8 5 20 10 25 10 6 0 3 -5 -5 -10z m-350 -22 c10 -6 7 -7 -10 -2 -14 3 -32 11 -40 16 -10 6 -7 7 10 2 14 -3 32 -11 40 -16z m300 2 c-8 -5 -19 -10 -25 -10 -5 0 -3 5 5 10 8 5 20 10 25 10 6 0 3 -5 -5 -10z m-220 -32 c10 -6 7 -7 -10 -2 -14 3 -32 11 -40 16 -10 6 -7 7 10 2 14 -3 32 -11 40 -16z m177 15 c-4 -3 -10 -3 -14 0 -3 4 0 7 7 7 7 0 10 -3 7 -7z m-37 -13 c-8 -5 -19 -10 -25 -10 -5 0 -3 5 5 10 8 5 20 10 25 10 6 0 3 -5 -5 -10z m-103 -17 c-4 -3 -10 -3 -14 0 -3 4 0 7 7 7 7 0 10 -3 7 -7z"/>
 </g>
<g id="layer103" fill="#e41919" stroke="none">
 <path d="M0 675 l0 -325 205 0 c158 0 204 3 201 13 -1 6 -1 9 1 5 8 -14 25 -8 20 7 -4 8 -3 16 1 19 4 3 8 -11 9 -30 0 -18 -2 -32 -6 -30 -4 3 -13 0 -21 -6 -12 -8 -12 -9 3 -4 9 3 17 1 17 -4 0 -6 4 -10 10 -10 5 0 12 27 16 60 4 33 10 63 15 65 4 3 6 -12 4 -34 -4 -36 -2 -40 28 -51 18 -7 41 -16 52 -21 70 -32 162 -47 180 -31 6 5 30 14 54 21 23 7 50 15 60 18 14 4 14 3 1 -6 -9 -6 -10 -11 -3 -11 6 0 18 -3 26 -6 10 -3 20 3 27 15 7 14 7 21 0 21 -5 0 -10 -7 -10 -15 0 -8 -4 -15 -8 -15 -16 0 -9 30 7 35 20 6 25 44 11 80 -5 14 -6 35 -1 47 6 18 10 8 14 -42 4 -36 5 -80 3 -98 -2 -21 0 -32 8 -29 6 2 10 16 8 30 -4 31 5 50 19 41 6 -4 6 -11 -1 -19 -9 -10 -9 -19 0 -32 10 -17 11 -17 6 2 -6 20 -2 20 205 17 141 -2 215 1 224 8 9 7 15 8 19 1 4 -6 13 -8 21 -4 13 4 15 53 15 324 l0 319 -720 0 -720 0 0 -325z m875 5 c3 -5 4 -10 1 -10 -3 0 -8 5 -11 10 -3 6 -4 10 -1 10 3 0 8 -4 11 -10z m-88 -37 c-4 -3 -7 0 -7 7 0 7 3 10 7 7 3 -4 3 -10 0 -14z m30 10 c-4 -3 -10 -3 -14 0 -3 4 0 7 7 7 7 0 10 -3 7 -7z m73 -9 c0 -8 -5 -12 -10 -9 -6 4 -8 11 -5 16 9 14 15 11 15 -7z m-313 -21 c-4 -3 -7 0 -7 7 0 7 3 10 7 7 3 -4 3 -10 0 -14z m233 13 c0 -3 -5 -8 -12 -12 -7 -4 -8 -3 -4 4 7 12 16 16 16 8z m-21 -46 c0 -10 -3 -8 -9 5 -12 27 -12 43 0 25 5 -8 9 -22 9 -30z m-297 -12 c-10 -22 -11 -21 -11 12 -1 26 2 31 11 22 8 -8 8 -17 0 -34z m395 15 c-4 -3 -7 0 -7 7 0 7 3 10 7 7 3 -4 3 -10 0 -14z m-290 -10 c-4 -3 -7 0 -7 7 0 7 3 10 7 7 3 -4 3 -10 0 -14z m73 4 c22 3 40 1 44 -6 13 -20 -80 -14 -95 7 -10 13 -10 14 0 6 7 -7 29 -10 51 -7z m67 -14 c-4 -3 -7 0 -7 7 0 7 3 10 7 7 3 -4 3 -10 0 -14z m162 -30 c0 -33 -1 -35 -9 -15 -8 20 -4 52 6 52 2 0 4 -17 3 -37z m-252 -80 c-3 -2 -12 15 -22 39 -28 69 -27 78 0 19 14 -29 24 -55 22 -58z m66 90 c-13 -2 -33 -2 -45 0 -13 2 -3 4 22 4 25 0 35 -2 23 -4z m27 -22 c-16 -30 -11 -49 5 -21 19 34 19 17 0 -20 -9 -17 -16 -33 -16 -37 0 -5 -11 -29 -23 -55 l-22 -46 -17 45 c-10 26 -15 48 -13 51 3 2 8 -8 12 -23 5 -20 9 -23 15 -13 7 10 9 10 9 -2 0 -8 9 3 20 25 22 45 25 59 10 50 -9 -6 2 34 16 56 11 18 14 8 4 -10z m-258 -58 c-7 -36 -12 -27 -11 20 0 30 3 36 8 23 4 -11 6 -30 3 -43z m175 20 c-4 -3 -7 0 -7 7 0 7 3 10 7 7 3 -4 3 -10 0 -14z m22 -43 c11 -24 11 -24 -3 -6 -9 11 -16 24 -16 30 0 12 5 7 19 -24z m28 3 c-4 -3 -7 0 -7 7 0 7 3 10 7 7 3 -4 3 -10 0 -14z"/>
 <path d="M680 390 c0 -7 3 -10 7 -7 3 4 3 10 0 14 -4 3 -7 0 -7 -7z"/>
 <path d="M474 345 c18 -14 15 -20 -9 -15 -5 1 -5 -4 2 -11 9 -9 15 -8 27 3 13 14 12 17 -12 27 -25 11 -26 10 -8 -4z"/>
 <path d="M550 310 c8 -5 20 -10 25 -10 6 0 3 5 -5 10 -8 5 -19 10 -25 10 -5 0 -3 -5 5 -10z"/>
 <path d="M785 300 c4 -6 11 -8 16 -5 14 9 11 15 -7 15 -8 0 -12 -5 -9 -10z"/>
 <path d="M633 275 c0 -8 3 -13 5 -10 3 3 12 -1 21 -7 10 -8 9 -4 -3 10 -23 26 -23 26 -23 7z"/>
 <path d="M713 273 c4 -3 10 -3 14 0 3 4 0 7 -7 7 -7 0 -10 -3 -7 -7z"/>
 <path d="M686 261 c-3 -4 6 -8 20 -9 13 -1 24 0 24 2 0 7 -40 14 -44 7z"/>
 </g>
<g id="layer104" fill="#d32325" stroke="none">
 <path d="M0 675 l0 -325 205 0 c158 0 204 3 201 13 -1 6 -1 9 1 5 8 -14 25 -8 20 7 -4 8 -3 16 1 19 4 3 8 -11 9 -30 0 -18 -2 -32 -6 -30 -4 3 -13 0 -21 -6 -12 -8 -12 -9 3 -4 9 3 17 1 17 -4 0 -6 4 -10 10 -10 5 0 12 27 16 60 4 33 10 63 15 65 4 3 6 -12 4 -34 -4 -36 -2 -40 28 -51 18 -7 41 -16 52 -21 70 -32 162 -47 180 -31 6 5 30 14 54 21 23 7 50 15 60 18 14 4 14 3 1 -6 -9 -6 -10 -11 -3 -11 6 0 18 -3 26 -6 10 -3 20 3 27 15 7 14 7 21 0 21 -5 0 -10 -7 -10 -15 0 -8 -4 -15 -8 -15 -16 0 -9 30 7 35 20 6 25 44 11 80 -5 14 -6 35 -1 47 6 18 10 8 14 -42 4 -36 5 -80 3 -98 -2 -21 0 -32 8 -29 6 2 10 16 8 30 -4 31 5 50 19 41 6 -4 6 -11 -1 -19 -9 -10 -9 -19 0 -32 10 -17 11 -17 6 2 -6 20 -2 20 205 17 141 -2 215 1 224 8 9 7 15 8 19 1 4 -6 13 -8 21 -4 13 4 15 53 15 324 l0 319 -720 0 -720 0 0 -325z m720 100 c11 -14 10 -14 -14 -5 -18 6 -34 7 -45 1 -12 -7 -18 -6 -18 2 0 18 63 19 77 2z m35 5 c3 -5 4 -10 1 -10 -3 0 -8 5 -11 10 -3 6 -4 10 -1 10 3 0 8 -4 11 -10z m40 0 c3 -5 4 -10 1 -10 -3 0 -8 5 -11 10 -3 6 -4 10 -1 10 3 0 8 -4 11 -10z m-173 -25 c8 5 7 2 -2 -7 -8 -8 -37 -27 -65 -42 -36 -20 -43 -22 -25 -7 14 11 29 21 33 21 5 0 5 5 1 12 -4 7 -3 8 4 4 23 -14 34 5 15 27 l-18 22 22 -18 c12 -11 27 -16 35 -12z m143 -6 c4 -6 13 -8 21 -5 8 3 13 1 11 -4 -1 -5 7 -16 18 -25 11 -9 2 -7 -20 6 -49 27 -63 39 -48 39 7 0 15 -5 18 -11z m95 -30 c0 -6 -4 -7 -10 -4 -5 3 -10 11 -10 16 0 6 5 7 10 4 6 -3 10 -11 10 -16z m-343 -6 c-4 -3 -10 -3 -14 0 -3 4 0 7 7 7 7 0 10 -3 7 -7z m363 -39 c0 -2 -9 0 -20 6 -11 6 -20 13 -20 16 0 2 9 0 20 -6 11 -6 20 -13 20 -16z m-384 -55 c-3 -39 -8 -74 -12 -78 -3 -3 -4 28 -1 69 6 86 5 80 12 80 3 0 3 -32 1 -71z m116 3 l15 -38 60 4 c38 3 63 0 67 -7 5 -8 -14 -11 -62 -11 l-69 0 -18 40 c-10 21 -25 41 -34 43 -11 3 -10 5 5 6 15 1 25 -9 36 -37z m208 30 c0 -4 -4 -12 -9 -17 -9 -10 -71 -150 -75 -170 -1 -5 -13 -33 -27 -62 l-25 -51 -17 45 c-10 26 -15 48 -13 51 3 2 8 -8 12 -23 5 -20 9 -23 15 -13 7 10 9 10 9 -2 0 -8 10 5 21 28 11 24 18 46 15 49 -3 3 -10 -5 -15 -18 -10 -24 -10 -24 -10 -1 -1 12 3 22 7 22 4 0 13 14 19 31 7 17 16 28 21 25 5 -3 14 6 21 20 14 31 14 47 1 39 -5 -3 -8 1 -5 9 3 9 7 23 10 31 4 15 45 22 45 7z m69 -29 c-1 -38 -1 -38 -9 -9 -8 27 -6 46 6 46 2 0 4 -17 3 -37z m-275 -69 c20 -48 35 -89 32 -91 -2 -2 -19 33 -37 79 -19 45 -35 86 -37 90 -2 4 -1 8 1 8 3 0 21 -39 41 -86z m323 59 c-4 -3 -7 0 -7 7 0 7 3 10 7 7 3 -4 3 -10 0 -14z m-38 -70 c0 -33 -1 -35 -9 -15 -8 20 -4 52 6 52 2 0 4 -17 3 -37z m-179 11 c-37 -8 -88 -9 -84 -2 3 4 26 7 52 7 26 -1 40 -3 32 -5z m-238 -81 c-7 -36 -12 -27 -11 20 0 30 3 36 8 23 4 -11 6 -30 3 -43z m175 20 c-4 -3 -7 0 -7 7 0 7 3 10 7 7 3 -4 3 -10 0 -14z m22 -43 c11 -24 11 -24 -3 -6 -9 11 -16 24 -16 30 0 12 5 7 19 -24z"/>
 <path d="M786 635 c-9 -26 -7 -32 5 -12 6 10 9 21 6 23 -2 3 -7 -2 -11 -11z"/>
 <path d="M735 520 c-4 -12 -5 -24 -2 -27 3 -2 8 5 12 17 4 12 5 24 2 27 -3 2 -8 -5 -12 -17z"/>
 <path d="M680 390 c0 -7 3 -10 7 -7 3 4 3 10 0 14 -4 3 -7 0 -7 -7z"/>
 <path d="M474 345 c18 -14 15 -20 -9 -15 -5 1 -5 -4 2 -11 9 -9 15 -8 27 3 13 14 12 17 -12 27 -25 11 -26 10 -8 -4z"/>
 <path d="M550 310 c8 -5 20 -10 25 -10 6 0 3 5 -5 10 -8 5 -19 10 -25 10 -5 0 -3 -5 5 -10z"/>
 <path d="M785 300 c4 -6 11 -8 16 -5 14 9 11 15 -7 15 -8 0 -12 -5 -9 -10z"/>
 <path d="M633 275 c0 -8 3 -13 5 -10 3 3 12 -1 21 -7 10 -8 9 -4 -3 10 -23 26 -23 26 -23 7z"/>
 <path d="M713 273 c4 -3 10 -3 14 0 3 4 0 7 -7 7 -7 0 -10 -3 -7 -7z"/>
 <path d="M686 261 c-3 -4 6 -8 20 -9 13 -1 24 0 24 2 0 7 -40 14 -44 7z"/>
 </g>
<g id="layer105" fill="#e82328" stroke="none">
 <path d="M0 820 l0 -180 230 0 c198 0 230 2 230 15 0 8 7 15 16 15 10 0 14 6 11 14 -4 10 0 12 14 9 18 -5 27 11 12 20 -5 2 -2 2 6 0 20 -5 52 7 46 18 -3 5 1 6 9 3 16 -6 16 11 1 36 -5 10 -1 8 13 -3 12 -12 26 -16 34 -11 11 6 11 5 0 -8 -7 -9 -26 -21 -42 -28 -17 -7 -30 -16 -30 -20 0 -4 -11 -11 -25 -14 -18 -5 -25 -14 -26 -31 -2 -31 -4 -62 -13 -145 -12 -125 -12 -142 4 -150 41 -21 184 -70 204 -70 13 0 37 7 52 15 16 8 36 15 44 15 9 0 20 4 25 9 6 5 27 14 47 20 36 12 56 40 43 60 -3 6 -8 32 -10 58 -8 89 -15 148 -20 165 -3 9 -1 19 5 23 5 3 11 -2 11 -12 1 -10 5 -4 8 12 7 30 8 30 18 -15 6 -25 11 -37 12 -27 1 9 6 17 11 17 6 0 10 8 11 18 0 10 3 12 6 5 3 -10 56 -14 206 -15 l202 -2 -205 -6 -205 -6 212 -2 c164 -1 212 1 210 10 -1 7 8 14 21 16 16 2 25 -3 31 -20 7 -15 10 42 10 175 l1 197 -720 0 -720 0 0 -180z m607 -47 c-4 -3 -7 0 -7 7 0 7 3 10 7 7 3 -4 3 -10 0 -14z m115 0 c10 -9 21 -13 25 -9 4 4 1 11 -7 16 -11 7 -11 10 -2 10 7 0 17 -12 22 -26 7 -17 15 -24 25 -20 8 3 14 1 12 -4 -1 -5 7 -16 18 -25 11 -8 -5 -2 -35 15 -84 46 -99 51 -119 41 -12 -7 -18 -6 -18 2 0 18 59 19 79 0z m73 -4 c-4 -5 -12 -9 -18 -8 -9 0 -8 2 1 6 6 2 9 10 6 15 -4 7 -2 8 5 4 6 -4 9 -12 6 -17z m85 -62 c13 -5 13 -6 0 -6 -18 -1 -40 18 -40 34 0 5 6 3 13 -6 7 -9 19 -18 27 -22z m0 -33 c0 -2 -9 0 -20 6 -11 6 -20 13 -20 16 0 2 9 0 20 -6 11 -6 20 -13 20 -16z m-273 -36 c6 -13 14 -31 17 -42 4 -11 12 -16 22 -12 9 3 35 6 60 6 41 0 45 3 58 35 10 24 22 35 35 35 22 0 28 -14 11 -25 -5 -3 -10 -15 -10 -25 0 -10 -5 -22 -12 -26 -8 -5 -9 0 -6 14 4 12 3 20 -2 17 -4 -2 -7 -22 -7 -43 0 -22 -7 -52 -15 -68 -21 -41 -55 -115 -63 -139 -6 -18 -8 -17 -20 10 -7 17 -23 51 -34 77 -12 26 -21 53 -21 59 0 6 -6 23 -14 37 -8 15 -21 46 -30 70 -15 40 -15 42 2 42 10 0 23 -10 29 -22z"/>
 <path d="M580 636 c0 -8 4 -17 9 -20 5 -4 7 3 4 14 -6 23 -13 26 -13 6z"/>
 <path d="M600 590 c0 -7 3 -10 7 -7 3 4 3 10 0 14 -4 3 -7 0 -7 -7z"/>
 <path d="M616 557 c3 -10 9 -15 12 -12 3 3 0 11 -7 18 -10 9 -11 8 -5 -6z"/>
 <path d="M693 563 c9 -2 23 -2 30 0 6 3 -1 5 -18 5 -16 0 -22 -2 -12 -5z"/>
 <path d="M648 538 c5 -7 15 -32 21 -56 11 -41 31 -50 31 -14 0 9 9 32 20 50 l20 32 -51 0 c-40 0 -49 -3 -41 -12z"/>
 <path d="M480 650 c0 -7 3 -10 7 -7 3 4 3 10 0 14 -4 3 -7 0 -7 -7z"/>
 <path d="M103 623 c59 -2 154 -2 210 0 56 1 8 3 -108 3 -116 0 -161 -2 -102 -3z"/>
 <path d="M443 623 c4 -3 10 -3 14 0 3 4 0 7 -7 7 -7 0 -10 -3 -7 -7z"/>
 <path d="M471 594 c0 -11 3 -14 6 -6 3 7 2 16 -1 19 -3 4 -6 -2 -5 -13z"/>
 </g>
<g id="layer106" fill="#d93c43" stroke="none">
 <path d="M605 729 c-44 -26 -85 -49 -91 -49 -6 0 -14 -31 -18 -72 -4 -40 -9 -86 -11 -103 -11 -98 -10 -138 5 -145 41 -21 184 -70 204 -70 13 0 37 7 52 15 16 8 36 15 44 15 9 0 20 4 25 9 6 5 27 14 47 20 36 12 56 40 43 60 -3 5 -8 36 -11 68 -19 198 -13 185 -112 244 -48 29 -89 53 -92 55 -3 1 -41 -20 -85 -47z m2 -91 c6 -13 14 -31 17 -42 4 -11 12 -16 22 -12 9 3 35 6 60 6 41 0 45 3 58 35 10 24 22 35 35 35 23 0 25 -3 12 -28 -10 -22 -39 -88 -55 -127 -7 -16 -22 -50 -33 -75 -12 -25 -24 -54 -28 -65 -6 -18 -8 -17 -20 10 -7 17 -25 56 -39 88 -14 32 -26 62 -26 67 0 6 -4 18 -9 28 -11 21 -27 62 -35 85 -8 26 28 22 41 -5z"/>
 <path d="M693 563 c9 -2 23 -2 30 0 6 3 -1 5 -18 5 -16 0 -22 -2 -12 -5z"/>
 <path d="M648 538 c5 -7 15 -32 21 -56 11 -41 31 -50 31 -14 0 9 9 32 20 50 l20 32 -51 0 c-40 0 -49 -3 -41 -12z"/>
 </g>
<g id="layer107" fill="#fdfcfc" stroke="none">
 <path d="M595 724 l-90 -54 -16 -147 c-9 -82 -14 -151 -10 -154 3 -3 50 -24 104 -45 l99 -38 100 34 c55 19 104 38 110 42 8 4 8 40 -1 125 -20 194 -11 176 -110 235 -47 28 -88 52 -91 54 -3 1 -46 -22 -95 -52z m21 -96 c9 -32 11 -33 72 -36 l61 -3 15 36 c10 24 21 35 35 35 12 0 21 -3 21 -6 0 -10 -121 -288 -129 -297 -4 -4 -37 63 -73 148 l-66 155 28 0 c22 0 29 -6 36 -32z"/>
 <path d="M656 528 c3 -12 12 -35 19 -52 l13 -29 21 48 c11 26 21 49 21 51 0 2 -18 4 -41 4 -37 0 -40 -2 -33 -22z"/>
 </g>

</svg>