<!DOCTYPE svg PUBLIC "-//W3C//DTD SVG 20010904//EN" "http://www.w3.org/TR/2001/REC-SVG-20010904/DTD/svg10.dtd">
<svg version="1.0" xmlns="http://www.w3.org/2000/svg" width="142px" height="99px" viewBox="0 0 1420 990" preserveAspectRatio="xMidYMid meet">
<g id="layer101" fill="#402085" stroke="none">
 <path d="M0 495 l0 -495 710 0 710 0 0 495 0 495 -710 0 -710 0 0 -495z"/>
 </g>
<g id="layer102" fill="#503283" stroke="none">
 <path d="M0 545 c0 -349 3 -445 13 -445 8 0 7 -4 -3 -10 -10 -6 221 -10 663 -10 451 0 677 -3 677 -10 0 -7 -216 -10 -645 -10 -356 0 -650 -2 -655 -5 -6 -4 -10 -17 -10 -31 l0 -24 675 0 c465 0 675 3 675 10 0 6 -7 24 -15 40 l-16 30 33 1 c32 2 32 2 -7 9 l-40 7 38 2 37 1 0 445 0 445 -710 0 -710 0 0 -445z m593 -60 c-3 -9 -8 -14 -10 -11 -3 3 -2 9 2 15 9 16 15 13 8 -4z m134 -37 c-3 -8 -6 -5 -6 6 -1 11 2 17 5 13 3 -3 4 -12 1 -19z m148 12 c-3 -5 -12 -10 -18 -10 -7 0 -6 4 3 10 19 12 23 12 15 0z m-188 -37 c-4 -3 -10 -3 -14 0 -3 4 0 7 7 7 7 0 10 -3 7 -7z m83 -17 c0 -3 -5 -8 -12 -12 -7 -4 -8 -3 -4 4 7 12 16 16 16 8z"/>
 </g>
<g id="layer103" fill="#5b4283" stroke="none">
 <path d="M0 872 c0 -81 4 -122 13 -131 10 -11 10 -14 0 -18 -48 -18 27 -23 345 -25 231 -2 356 -7 355 -13 -1 -5 10 -11 23 -11 13 -1 24 2 24 8 0 5 -5 6 -10 3 -17 -10 -11 12 7 26 11 10 14 10 9 2 -4 -8 -2 -13 5 -13 7 0 9 -3 6 -7 -4 -3 -1 -13 6 -21 10 -13 9 -14 -3 -10 -8 3 -27 -3 -42 -14 -16 -11 -33 -16 -38 -13 -6 4 -9 2 -8 -3 2 -6 -23 -29 -55 -51 -61 -43 -73 -49 -61 -28 4 7 3 9 -2 4 -5 -5 -9 -14 -9 -20 0 -5 -6 -12 -14 -15 -9 -3 -11 0 -6 8 5 9 4 11 -4 6 -6 -4 -9 -11 -6 -16 3 -5 -4 -15 -15 -23 -21 -15 -21 -15 9 -37 17 -12 29 -25 26 -30 -3 -5 0 -12 6 -16 8 -5 9 -3 4 6 -5 8 -3 11 6 8 8 -3 14 -10 14 -16 0 -5 4 -14 9 -19 6 -5 6 -2 1 6 -7 11 -4 13 11 6 41 -18 114 -18 142 1 15 10 32 17 37 16 6 -2 4 2 -2 9 -23 23 -14 29 37 29 43 0 55 5 76 27 19 20 24 36 21 57 -4 26 -3 27 10 11 7 -11 13 -14 13 -8 0 15 -25 34 -34 26 -4 -4 -10 -3 -14 3 -4 5 -28 25 -54 43 -26 19 -45 37 -43 42 3 4 0 11 -6 15 -8 4 -7 9 2 15 10 6 11 9 2 9 -7 0 -13 5 -13 12 0 9 3 9 13 -1 6 -6 12 -17 12 -23 0 -6 7 -13 15 -15 13 -4 13 -3 0 6 -11 8 -12 11 -2 11 7 0 11 3 9 8 -3 4 123 6 280 4 285 -3 332 0 303 18 -10 7 -11 10 -2 10 9 0 12 33 12 130 l0 130 -710 0 -710 0 0 -118z m727 -174 c-3 -8 -6 -5 -6 6 -1 11 2 17 5 13 3 -3 4 -12 1 -19z m66 -105 c-1 -6 5 -10 15 -9 9 0 16 -4 15 -11 -1 -6 5 -17 15 -25 15 -12 16 -11 3 5 -16 21 1 23 19 2 27 -33 -18 -67 -74 -55 -17 3 -31 11 -31 17 0 6 -4 15 -9 20 -5 5 -6 3 -2 -4 10 -18 -5 -15 -33 6 l-24 18 39 27 c38 26 71 30 67 9z m-128 -80 c0 -6 4 -15 9 -20 5 -5 6 -2 1 6 -5 9 -3 12 6 9 8 -3 14 -9 14 -14 0 -5 4 -15 8 -21 5 -7 5 -19 1 -25 -5 -10 -4 -10 6 -1 11 10 11 15 -1 29 -12 15 -12 17 1 12 21 -6 24 -42 6 -57 -18 -15 -72 -10 -69 6 2 7 -4 10 -12 7 -18 -7 -47 14 -39 27 3 5 -3 6 -12 2 -12 -4 -15 -2 -12 8 3 8 14 14 26 13 12 0 19 3 16 7 -5 9 27 30 41 25 6 -1 10 -8 10 -13z"/>
 <path d="M763 593 c4 -3 10 -3 14 0 3 4 0 7 -7 7 -7 0 -10 -3 -7 -7z"/>
 <path d="M734 578 c-4 -7 -3 -8 4 -4 7 4 12 9 12 12 0 8 -9 4 -16 -8z"/>
 <path d="M706 561 c-3 -5 1 -11 9 -14 9 -4 12 -1 8 9 -6 16 -10 17 -17 5z"/>
 <path d="M765 540 c3 -5 8 -10 11 -10 3 0 2 5 -1 10 -3 6 -8 10 -11 10 -3 0 -2 -4 1 -10z"/>
 <path d="M823 513 c4 -3 10 -3 14 0 3 4 0 7 -7 7 -7 0 -10 -3 -7 -7z"/>
 <path d="M634 508 c-4 -7 -3 -8 4 -4 7 4 12 9 12 12 0 8 -9 4 -16 -8z"/>
 <path d="M850 690 c-8 -5 -11 -10 -6 -10 5 0 3 -7 -4 -15 -7 -8 -16 -12 -21 -9 -5 3 -9 3 -9 0 0 -6 91 -69 94 -64 1 1 8 12 16 22 8 11 10 17 3 13 -6 -4 -14 -1 -17 5 -3 9 -5 8 -3 -2 1 -8 -3 -16 -8 -17 -6 -2 -10 0 -10 5 -1 4 -6 17 -13 29 -6 12 -9 29 -6 37 7 18 5 19 -16 6z m25 -69 c-2 -1 -13 4 -25 12 -15 10 -18 16 -8 19 12 4 41 -22 33 -31z"/>
 <path d="M719 653 c-13 -16 -12 -17 4 -4 9 7 17 15 17 17 0 8 -8 3 -21 -13z"/>
 <path d="M613 625 c0 -8 4 -12 9 -9 5 3 6 10 3 15 -9 13 -12 11 -12 -6z"/>
 <path d="M640 630 c0 -7 3 -10 7 -7 3 4 3 10 0 14 -4 3 -7 0 -7 -7z"/>
 <path d="M664 631 c3 -5 -12 -20 -34 -35 -22 -14 -40 -29 -40 -32 0 -3 20 9 45 26 25 17 43 35 40 41 -4 5 -8 9 -11 9 -3 0 -3 -4 0 -9z"/>
 <path d="M583 623 c4 -3 10 -3 14 0 3 4 0 7 -7 7 -7 0 -10 -3 -7 -7z"/>
 <path d="M559 593 c-13 -17 -13 -17 6 -3 11 8 22 16 24 17 2 2 0 3 -6 3 -6 0 -17 -8 -24 -17z"/>
 <path d="M843 443 c4 -3 10 -3 14 0 3 4 0 7 -7 7 -7 0 -10 -3 -7 -7z"/>
 </g>
<g id="layer104" fill="#baaecf" stroke="none">
 <path d="M627 570 l-128 -89 68 -45 c56 -38 76 -46 113 -46 51 0 90 22 90 51 0 16 7 19 44 19 33 0 52 7 75 26 38 32 39 53 4 86 -35 32 -119 88 -130 87 -4 0 -66 -41 -136 -89z m196 15 c50 -37 58 -59 30 -81 -29 -22 -66 -16 -122 20 l-53 33 43 31 c24 17 46 31 49 31 3 0 26 -15 53 -34z m-126 -81 c49 -37 40 -84 -16 -84 -26 0 -111 45 -111 59 0 12 61 51 79 51 8 0 29 -11 48 -26z"/>
 </g>
<g id="layer105" fill="#c6bad6" stroke="none">
 <path d="M740 646 c-8 -8 -66 -48 -128 -90 l-113 -75 68 -46 c75 -50 120 -57 175 -29 26 14 29 19 24 46 -5 23 -3 28 7 21 22 -18 97 -7 123 18 37 35 27 58 -51 116 -76 57 -83 60 -105 39z m83 -61 c50 -37 58 -59 30 -81 -29 -22 -66 -16 -122 20 l-53 33 43 31 c24 17 46 31 49 31 3 0 26 -15 53 -34z m-132 -76 c58 -46 51 -89 -14 -89 -12 0 -44 13 -71 29 l-48 28 43 31 c24 17 46 31 48 32 2 0 21 -14 42 -31z"/>
 </g>
<g id="layer106" fill="#d5ccdf" stroke="none">
 <path d="M632 570 l-132 -89 59 -40 c67 -45 126 -60 170 -41 34 14 44 33 35 64 -6 17 -4 19 7 10 19 -15 85 -9 114 10 29 19 40 52 24 72 -11 13 -137 105 -142 103 -1 0 -62 -40 -135 -89z m191 15 c26 -20 47 -43 47 -51 0 -22 -29 -43 -58 -44 -40 0 -148 60 -131 74 15 12 85 56 89 56 3 0 26 -16 53 -35z m-123 -83 c22 -22 40 -44 40 -50 0 -19 -41 -34 -75 -29 -30 5 -105 46 -105 57 1 6 81 58 92 59 4 1 25 -16 48 -37z"/>
 </g>
<g id="layer107" fill="#e3dae8" stroke="none">
 <path d="M642 575 c-67 -45 -125 -84 -127 -87 -3 -3 20 -24 51 -47 72 -54 134 -65 177 -31 21 17 27 29 23 45 -5 21 -3 21 49 17 48 -4 56 -1 80 22 14 15 25 34 23 43 -3 17 -70 72 -125 104 -28 17 -28 16 -151 -66z m183 14 c52 -38 58 -50 39 -78 -19 -27 -61 -27 -119 0 -41 19 -73 45 -64 53 20 16 85 56 92 56 5 0 28 -14 52 -31z m-136 -75 c37 -24 56 -57 45 -76 -15 -24 -55 -27 -97 -8 -47 23 -83 48 -76 53 9 8 84 57 87 57 1 0 20 -12 41 -26z"/>
 </g>
<g id="layer108" fill="#faf9fa" stroke="none">
 <path d="M675 596 c-49 -34 -107 -73 -128 -88 l-39 -26 63 -42 c78 -53 131 -62 172 -30 21 17 27 28 23 45 -5 21 -3 22 44 17 63 -6 100 15 100 57 0 24 -10 37 -62 73 -35 25 -67 47 -73 50 -5 3 -50 -22 -100 -56z m149 -6 c57 -39 64 -59 31 -87 -33 -29 -41 -29 -101 3 -54 28 -74 43 -74 53 0 8 81 61 93 61 4 0 28 -13 51 -30z m-128 -81 c53 -36 56 -66 10 -87 -25 -13 -32 -12 -70 7 -48 26 -81 49 -75 54 10 9 84 57 87 57 2 0 24 -14 48 -31z"/>
 </g>

</svg>