<!DOCTYPE svg PUBLIC "-//W3C//DTD SVG 20010904//EN" "http://www.w3.org/TR/2001/REC-SVG-20010904/DTD/svg10.dtd">
<svg version="1.0" xmlns="http://www.w3.org/2000/svg" width="144px" height="101px" viewBox="0 0 1440 1010" preserveAspectRatio="xMidYMid meet">
<g id="layer101" fill="#003c84" stroke="none">
 <path d="M0 505 l0 -505 720 0 720 0 0 505 0 505 -720 0 -720 0 0 -505z"/>
 </g>
<g id="layer102" fill="#08477a" stroke="none">
 <path d="M0 505 l0 -505 720 0 720 0 0 505 0 505 -720 0 -720 0 0 -505z m577 -42 c-4 -3 -7 0 -7 7 0 7 3 10 7 7 3 -4 3 -10 0 -14z m228 -43 c-3 -5 -33 -10 -65 -10 -32 0 -62 5 -65 10 -4 6 20 10 65 10 45 0 69 -4 65 -10z m32 3 c-4 -3 -10 -3 -14 0 -3 4 0 7 7 7 7 0 10 -3 7 -7z m33 -3 c0 -5 -2 -10 -4 -10 -3 0 -8 5 -11 10 -3 6 -1 10 4 10 6 0 11 -4 11 -10z m77 -47 c-3 -10 -5 -4 -5 12 0 17 2 24 5 18 2 -7 2 -21 0 -30z m-376 -10 c-9 -16 -10 -14 -11 12 0 21 3 26 11 18 8 -8 8 -16 0 -30z m34 -33 c3 -5 -1 -10 -10 -10 -9 0 -13 5 -10 10 3 6 8 10 10 10 2 0 7 -4 10 -10z m272 -7 c-4 -3 -10 -3 -14 0 -3 4 0 7 7 7 7 0 10 -3 7 -7z m-147 -64 c0 -6 -4 -7 -10 -4 -5 3 -10 11 -10 16 0 6 5 7 10 4 6 -3 10 -11 10 -16z m-33 -35 c-3 -3 -12 -4 -19 -1 -8 3 -5 6 6 6 11 1 17 -2 13 -5z m76 -1 c-7 -2 -19 -2 -25 0 -7 3 -2 5 12 5 14 0 19 -2 13 -5z m65 0 c-10 -2 -26 -2 -35 0 -10 3 -2 5 17 5 19 0 27 -2 18 -5z"/>
 </g>
<g id="layer103" fill="#0d5993" stroke="none">
 <path d="M0 515 l0 -495 720 0 720 0 0 495 0 495 -720 0 -720 0 0 -495z m697 68 c-4 -3 -10 -3 -14 0 -3 4 0 7 7 7 7 0 10 -3 7 -7z m-120 -120 c-4 -3 -7 0 -7 7 0 7 3 10 7 7 3 -4 3 -10 0 -14z m83 -13 c0 -5 -2 -10 -4 -10 -3 0 -8 5 -11 10 -3 6 -1 10 4 10 6 0 11 -4 11 -10z m145 -30 c-3 -5 -33 -10 -65 -10 -32 0 -62 5 -65 10 -4 6 20 10 65 10 45 0 69 -4 65 -10z m65 0 c0 -5 -9 -10 -19 -10 -11 0 -23 5 -26 10 -4 6 5 10 19 10 14 0 26 -4 26 -10z m77 -47 c-3 -10 -5 -4 -5 12 0 17 2 24 5 18 2 -7 2 -21 0 -30z m-376 -14 c-9 -23 -10 -22 -10 11 -1 23 2 31 9 24 7 -7 7 -19 1 -35z m44 -29 c4 -6 -5 -10 -20 -10 -15 0 -24 4 -20 10 3 6 12 10 20 10 8 0 17 -4 20 -10z m270 0 c3 -5 -1 -10 -10 -10 -9 0 -13 5 -10 10 3 6 8 10 10 10 2 0 7 -4 10 -10z m-201 -8 c3 -5 -1 -9 -9 -9 -8 0 -12 4 -9 9 3 4 7 8 9 8 2 0 6 -4 9 -8z m43 1 c-4 -3 -10 -3 -14 0 -3 4 0 7 7 7 7 0 10 -3 7 -7z m57 -5 c-2 -3 -13 -6 -24 -5 -24 2 -18 13 9 13 11 0 18 -4 15 -8z m51 2 c3 -5 1 -10 -4 -10 -6 0 -11 5 -11 10 0 6 2 10 4 10 3 0 8 -4 11 -10z m102 3 c-4 -3 -10 -3 -14 0 -3 4 0 7 7 7 7 0 10 -3 7 -7z m-240 -60 c-4 -3 -7 0 -7 7 0 7 3 10 7 7 3 -4 3 -10 0 -14z m33 -4 c0 -6 -4 -7 -10 -4 -5 3 -10 11 -10 16 0 6 5 7 10 4 6 -3 10 -11 10 -16z m-10 -35 c0 -2 -15 -4 -32 -3 -27 0 -29 2 -13 8 18 8 45 4 45 -5z m60 0 c0 -2 -12 -4 -26 -4 -14 0 -23 4 -20 9 6 8 46 4 46 -5z m58 -1 c-10 -2 -26 -2 -35 0 -10 3 -2 5 17 5 19 0 27 -2 18 -5z"/>
 <path d="M358 3 c199 -2 525 -2 725 0 199 1 36 2 -363 2 -399 0 -562 -1 -362 -2z"/>
 </g>
<g id="layer104" fill="#0f65a4" stroke="none">
 <path d="M0 885 c0 -109 2 -125 16 -125 13 0 14 -3 5 -13 -6 -8 -8 -16 -5 -20 9 -9 7 -99 -3 -106 -4 -3 -8 -46 -8 -95 l-1 -88 60 6 c32 3 140 7 240 8 l181 2 -205 6 -205 6 195 2 c234 2 241 1 234 -42 -2 -17 -2 -25 2 -18 3 6 11 9 16 5 7 -4 9 2 5 18 -4 14 -1 29 7 39 8 8 16 26 19 40 3 14 3 -18 1 -70 -3 -91 -2 -89 11 40 26 247 25 242 65 256 19 7 28 13 20 13 -13 1 -13 2 0 11 8 5 22 9 30 9 10 0 9 -3 -5 -10 -21 -10 1 -8 71 6 l29 5 -30 -11 c-16 -6 -37 -13 -45 -16 -8 -3 -19 -7 -25 -7 -58 -8 -75 -18 -76 -49 -2 -34 -4 -60 -13 -172 -3 -38 -7 -94 -10 -122 l-4 -53 185 0 184 0 -5 68 c-2 37 -7 78 -11 92 -3 14 -2 37 4 50 8 22 10 19 11 -25 1 -27 6 -75 10 -105 8 -53 9 -52 5 20 -1 41 -1 69 2 61 3 -7 14 -22 24 -32 17 -17 36 -19 198 -19 163 0 180 -2 184 -17 3 -10 6 -2 7 17 3 34 3 34 10 -10 l7 -45 1 43 c2 43 21 60 23 20 1 -22 1 -22 8 2 l8 25 5 -25 c3 -14 6 104 7 263 l1 287 -720 0 -720 0 0 -125z m750 -95 c0 -5 -5 -10 -11 -10 -5 0 -7 5 -4 10 3 6 8 10 11 10 2 0 4 -4 4 -10z m37 -7 c-4 -3 -10 -3 -14 0 -3 4 0 7 7 7 7 0 10 -3 7 -7z m640 -60 c-2 -16 -4 -5 -4 22 0 28 2 40 4 28 2 -13 2 -35 0 -50z m-562 37 c3 -5 1 -10 -4 -10 -6 0 -11 5 -11 10 0 6 2 10 4 10 3 0 8 -4 11 -10z m-40 -10 c13 -5 14 -9 5 -9 -8 0 -24 4 -35 9 -13 5 -14 9 -5 9 8 0 24 -4 35 -9z m91 -17 c-3 -3 3 -13 12 -22 10 -9 11 -11 3 -6 -12 8 -13 6 -8 -7 3 -10 2 -18 -3 -18 -6 0 -10 9 -10 20 0 11 -6 20 -12 21 -10 0 -10 2 0 6 6 2 9 10 6 15 -5 7 -2 8 5 4 7 -5 10 -10 7 -13z m-39 1 c-3 -3 -12 -4 -19 -1 -8 3 -5 6 6 6 11 1 17 -2 13 -5z m-300 -41 c-4 -3 -7 0 -7 7 0 7 3 10 7 7 3 -4 3 -10 0 -14z m850 -50 c-3 -10 -5 -2 -5 17 0 19 2 27 5 18 2 -10 2 -26 0 -35z m-857 27 c0 -5 -7 -7 -15 -4 -8 4 -15 8 -15 10 0 2 7 4 15 4 8 0 15 -4 15 -10z m380 -2 c0 -7 2 -31 5 -53 4 -37 4 -36 -9 10 l-14 50 -2 -50 -2 -50 -11 43 c-8 35 -7 46 4 53 20 12 29 11 29 -3z m-117 -14 c11 -4 18 -17 19 -37 4 -63 6 -93 13 -149 l8 -58 -117 0 -116 0 0 26 c0 23 4 25 33 24 17 -1 58 -2 90 -1 54 1 57 2 57 26 0 25 -1 25 -85 25 -78 0 -85 2 -85 20 0 18 7 20 85 20 75 0 85 2 85 18 0 25 -21 50 -45 52 -47 5 -67 -1 -72 -20 -3 -12 -14 -20 -27 -20 -19 0 -22 4 -18 31 8 52 82 70 175 43z m544 -16 c-3 -8 -6 -5 -6 6 -1 11 2 17 5 13 3 -3 4 -12 1 -19z m-812 2 c-3 -5 -14 -10 -23 -10 -15 0 -15 2 -2 10 20 13 33 13 25 0z m2 -37 c-4 -3 -7 0 -7 7 0 7 3 10 7 7 3 -4 3 -10 0 -14z m0 -35 c-3 -8 -6 -5 -6 6 -1 11 2 17 5 13 3 -3 4 -12 1 -19z m-502 -98 c3 -5 -1 -10 -9 -10 -9 0 -16 5 -16 10 0 6 4 10 9 10 6 0 13 -4 16 -10z m1218 -7 c-46 -2 -120 -2 -165 0 -46 1 -9 3 82 3 91 0 128 -2 83 -3z"/>
 <path d="M710 647 c-24 -8 -36 -19 -38 -34 -2 -13 2 -23 7 -23 6 0 11 9 11 20 0 25 35 35 93 26 42 -7 43 -7 46 -49 3 -59 11 -60 11 0 0 47 -2 51 -27 57 -16 3 -37 8 -48 10 -11 2 -36 -1 -55 -7z"/>
 <path d="M676 529 c3 -5 44 -9 92 -8 63 1 81 4 63 10 -30 12 -162 9 -155 -2z"/>
 <path d="M837 495 c-4 -8 -2 -17 3 -20 6 -4 10 3 10 14 0 25 -6 27 -13 6z"/>
 <path d="M840 440 c0 -7 3 -10 7 -7 3 4 3 10 0 14 -4 3 -7 0 -7 -7z"/>
 <path d="M698 433 c23 -2 61 -2 85 0 23 2 4 4 -43 4 -47 0 -66 -2 -42 -4z"/>
 <path d="M1410 420 c0 -7 3 -10 7 -7 3 4 3 10 0 14 -4 3 -7 0 -7 -7z"/>
 <path d="M583 313 c4 -3 10 -3 14 0 3 4 0 7 -7 7 -7 0 -10 -3 -7 -7z"/>
 <path d="M633 313 c4 -3 10 -3 14 0 3 4 0 7 -7 7 -7 0 -10 -3 -7 -7z"/>
 <path d="M863 313 c4 -3 10 -3 14 0 3 4 0 7 -7 7 -7 0 -10 -3 -7 -7z"/>
 <path d="M913 313 c4 -3 10 -3 14 0 3 4 0 7 -7 7 -7 0 -10 -3 -7 -7z"/>
 <path d="M728 271 c-3 -35 -1 -38 20 -38 13 0 26 6 29 14 4 11 8 11 17 -3 7 -9 21 -14 32 -12 14 2 19 12 19 38 0 31 -3 35 -25 35 -14 0 -25 -5 -25 -12 0 -6 -3 -15 -7 -19 -4 -3 -6 3 -3 15 3 17 -1 21 -25 21 -25 0 -28 -4 -32 -39z"/>
 <path d="M660 271 c0 -33 11 -44 34 -35 20 8 21 24 1 24 -8 0 -15 5 -15 10 0 6 7 10 15 10 8 0 15 5 15 10 0 6 -11 10 -25 10 -21 0 -25 -5 -25 -29z"/>
 <path d="M940 290 c0 -7 3 -10 7 -7 3 4 3 10 0 14 -4 3 -7 0 -7 -7z"/>
 <path d="M803 213 c4 -3 10 -3 14 0 3 4 0 7 -7 7 -7 0 -10 -3 -7 -7z"/>
 <path d="M358 3 c199 -2 525 -2 725 0 199 1 36 2 -363 2 -399 0 -562 -1 -362 -2z"/>
 </g>
<g id="layer105" fill="#1e8cbf" stroke="none">
 <path d="M685 738 c-33 -11 -65 -21 -71 -23 -6 -2 -16 -68 -23 -167 -7 -89 -15 -173 -18 -185 l-5 -23 187 0 188 0 -6 48 c-4 26 -12 108 -18 182 -6 74 -14 139 -19 143 -4 4 -34 14 -66 22 -32 7 -66 16 -74 18 -8 2 -42 -5 -75 -15z m126 -78 c41 -11 37 -1 55 -182 l6 -68 -116 0 -116 0 0 25 c0 25 1 25 90 25 89 0 90 0 90 25 0 25 -1 25 -85 25 -78 0 -85 2 -85 20 0 18 7 20 85 20 l85 0 -6 28 c-8 34 -14 40 -39 42 -47 5 -67 -1 -72 -20 -3 -12 -14 -20 -27 -20 -19 0 -21 5 -18 34 3 27 10 36 35 44 43 13 75 14 118 2z"/>
 <path d="M730 276 c0 -22 6 -36 16 -40 24 -9 34 2 34 40 0 30 -3 34 -25 34 -22 0 -25 -4 -25 -34z"/>
 <path d="M798 303 c-3 -4 -4 -21 -4 -38 1 -25 5 -30 26 -30 22 0 25 4 25 35 0 28 -4 36 -22 38 -11 2 -23 0 -25 -5z"/>
 <path d="M660 271 c0 -33 11 -44 34 -35 20 8 21 24 1 24 -8 0 -15 5 -15 10 0 6 7 10 15 10 8 0 15 5 15 10 0 6 -11 10 -25 10 -21 0 -25 -5 -25 -29z"/>
 <path d="M358 3 c199 -2 525 -2 725 0 199 1 36 2 -363 2 -399 0 -562 -1 -362 -2z"/>
 </g>
<g id="layer106" fill="#fbfcfc" stroke="none">
 <path d="M665 730 l-60 -17 -12 -139 c-6 -76 -14 -160 -17 -186 l-5 -48 186 0 186 0 -6 48 c-4 26 -12 108 -18 182 -6 74 -14 138 -18 141 -11 10 -126 39 -152 38 -13 -1 -51 -9 -84 -19z m146 -70 c41 -11 37 -1 55 -182 l6 -68 -116 0 -116 0 0 25 c0 25 1 25 90 25 89 0 90 0 90 25 0 25 -1 25 -85 25 -78 0 -85 2 -85 20 0 18 7 20 81 20 l80 0 -3 32 c-2 25 -9 34 -28 38 -38 9 -72 -1 -77 -21 -3 -11 -14 -19 -27 -19 -19 0 -21 5 -18 34 3 27 10 36 35 44 43 13 75 14 118 2z"/>
 <path d="M730 276 c0 -22 6 -36 16 -40 24 -9 34 2 34 40 0 30 -3 34 -25 34 -22 0 -25 -4 -25 -34z"/>
 <path d="M798 303 c-3 -4 -4 -21 -4 -38 1 -25 5 -30 26 -30 22 0 25 4 25 35 0 28 -4 36 -22 38 -11 2 -23 0 -25 -5z"/>
 <path d="M660 271 c0 -33 11 -44 34 -35 20 8 21 24 1 24 -8 0 -15 5 -15 10 0 6 7 10 15 10 8 0 15 5 15 10 0 6 -11 10 -25 10 -21 0 -25 -5 -25 -29z"/>
 </g>

</svg>