<!DOCTYPE svg PUBLIC "-//W3C//DTD SVG 20010904//EN" "http://www.w3.org/TR/2001/REC-SVG-20010904/DTD/svg10.dtd">
<svg version="1.0" xmlns="http://www.w3.org/2000/svg" width="139px" height="98px" viewBox="0 0 1390 980" preserveAspectRatio="xMidYMid meet">
<g id="layer101" fill="#605f5e" stroke="none">
 <path d="M0 490 l0 -490 695 0 695 0 0 490 0 490 -695 0 -695 0 0 -490z"/>
 </g>
<g id="layer102" fill="#fcf8f9" stroke="none">
 <path d="M574 760 c-54 -27 -118 -92 -146 -149 -19 -37 -23 -63 -23 -131 0 -75 3 -91 29 -138 35 -63 77 -102 149 -139 45 -23 64 -27 142 -27 77 -1 98 3 147 26 189 88 245 312 118 473 -34 43 -131 105 -164 105 -13 0 -16 -13 -18 -65 -1 -36 -2 -73 -2 -82 -1 -11 11 -20 34 -26 44 -11 69 -33 86 -74 18 -42 18 -81 -1 -117 -8 -15 -15 -46 -15 -67 0 -47 -16 -57 -57 -36 -34 17 -212 16 -256 -2 -38 -15 -47 -7 -47 38 0 21 -7 53 -16 70 -20 40 -14 103 14 140 10 14 42 35 69 46 49 20 51 22 38 45 -20 37 -62 33 -100 -9 -17 -18 -38 -32 -47 -30 -13 3 -8 14 22 48 34 39 44 45 79 45 40 1 41 1 41 39 0 44 -14 47 -76 17z"/>
 </g>

</svg>