<!DOCTYPE svg PUBLIC "-//W3C//DTD SVG 20010904//EN" "http://www.w3.org/TR/2001/REC-SVG-20010904/DTD/svg10.dtd">
<svg version="1.0" xmlns="http://www.w3.org/2000/svg" width="144px" height="101px" viewBox="0 0 1440 1010" preserveAspectRatio="xMidYMid meet">
<g id="layer101" fill="#b91702" stroke="none">
 <path d="M0 505 l0 -505 720 0 720 0 0 505 0 505 -720 0 -720 0 0 -505z"/>
 </g>
<g id="layer102" fill="#c61a03" stroke="none">
 <path d="M0 505 l0 -505 720 0 720 0 0 505 0 505 -720 0 -720 0 0 -505z"/>
 </g>
<g id="layer103" fill="#bd3611" stroke="none">
 <path d="M0 505 l0 -505 720 0 720 0 0 505 0 505 -720 0 -720 0 0 -505z m547 23 c-3 -7 -5 -2 -5 12 0 14 2 19 5 13 2 -7 2 -19 0 -25z m260 10 c-3 -8 -6 -5 -6 6 -1 11 2 17 5 13 3 -3 4 -12 1 -19z m80 -10 c-3 -7 -5 -2 -5 12 0 14 2 19 5 13 2 -7 2 -19 0 -25z m-260 -5 c-4 -3 -7 0 -7 7 0 7 3 10 7 7 3 -4 3 -10 0 -14z m20 -40 c-4 -3 -7 0 -7 7 0 7 3 10 7 7 3 -4 3 -10 0 -14z m252 -50 c0 -25 -1 -25 -8 -8 -5 11 -7 23 -4 28 8 14 13 7 12 -20z m-362 0 c-4 -3 -7 0 -7 7 0 7 3 10 7 7 3 -4 3 -10 0 -14z m83 -3 c0 -11 -4 -20 -9 -20 -5 0 -7 9 -4 20 3 11 7 20 9 20 2 0 4 -9 4 -20z m204 -5 c3 -8 1 -15 -4 -15 -6 0 -10 7 -10 15 0 8 2 15 4 15 2 0 6 -7 10 -15z m-61 -12 c-23 -2 -64 -2 -90 0 -26 2 -7 3 42 3 50 0 71 -1 48 -3z m144 -70 c-4 -3 -7 0 -7 7 0 7 3 10 7 7 3 -4 3 -10 0 -14z m-300 -60 c-4 -3 -7 0 -7 7 0 7 3 10 7 7 3 -4 3 -10 0 -14z m40 0 c-4 -3 -7 0 -7 7 0 7 3 10 7 7 3 -4 3 -10 0 -14z m10 -20 c-4 -3 -10 -3 -14 0 -3 4 0 7 7 7 7 0 10 -3 7 -7z m50 0 c-4 -3 -10 -3 -14 0 -3 4 0 7 7 7 7 0 10 -3 7 -7z m-120 -40 c-4 -3 -10 -3 -14 0 -3 4 0 7 7 7 7 0 10 -3 7 -7z m40 0 c-4 -3 -10 -3 -14 0 -3 4 0 7 7 7 7 0 10 -3 7 -7z m71 0 c-10 -2 -26 -2 -35 0 -10 3 -2 5 17 5 19 0 27 -2 18 -5z m39 0 c-4 -3 -10 -3 -14 0 -3 4 0 7 7 7 7 0 10 -3 7 -7z m50 0 c-4 -3 -10 -3 -14 0 -3 4 0 7 7 7 7 0 10 -3 7 -7z m40 0 c-4 -3 -10 -3 -14 0 -3 4 0 7 7 7 7 0 10 -3 7 -7z"/>
 </g>
<g id="layer104" fill="#c93a15" stroke="none">
 <path d="M0 585 c0 -270 3 -415 10 -415 5 0 9 5 7 11 -1 6 4 14 10 16 7 3 13 -2 13 -10 0 -8 7 -18 15 -21 21 -8 1309 -8 1330 0 8 3 15 13 15 21 0 8 6 13 13 10 6 -2 11 -10 10 -16 -2 -6 2 -11 7 -11 7 0 10 145 10 415 l0 415 -720 0 -720 0 0 -415z m727 38 c-4 -3 -10 -3 -14 0 -3 4 0 7 7 7 7 0 10 -3 7 -7z m-180 -95 c-3 -7 -5 -2 -5 12 0 14 2 19 5 13 2 -7 2 -19 0 -25z m260 10 c-3 -8 -6 -5 -6 6 -1 11 2 17 5 13 3 -3 4 -12 1 -19z m80 -10 c-3 -7 -5 -2 -5 12 0 14 2 19 5 13 2 -7 2 -19 0 -25z m-260 -5 c-4 -3 -7 0 -7 7 0 7 3 10 7 7 3 -4 3 -10 0 -14z m80 -20 c-4 -3 -10 -3 -14 0 -3 4 0 7 7 7 7 0 10 -3 7 -7z m-60 -40 c-3 -10 -5 -4 -5 12 0 17 2 24 5 18 2 -7 2 -21 0 -30z m-105 -47 c-9 -18 -11 -16 -11 19 0 33 1 37 10 21 8 -12 8 -25 1 -40z m171 1 l92 -3 -101 -2 -101 -2 6 28 c5 24 6 25 9 5 3 -21 9 -22 95 -26z m186 16 c0 -25 -1 -25 -8 -8 -5 11 -7 23 -4 28 8 14 13 7 12 -20z m-76 -3 c3 -11 1 -20 -4 -20 -5 0 -9 9 -9 20 0 11 2 20 4 20 2 0 6 -9 9 -20z m-296 -92 c-3 -8 -6 -5 -6 6 -1 11 2 17 5 13 3 -3 4 -12 1 -19z m380 0 c-3 -8 -6 -5 -6 6 -1 11 2 17 5 13 3 -3 4 -12 1 -19z m-360 -25 c-4 -3 -7 0 -7 7 0 7 3 10 7 7 3 -4 3 -10 0 -14z m133 8 c0 -4 -11 -6 -25 -3 -14 2 -25 6 -25 8 0 2 11 4 25 4 14 0 25 -4 25 -9z m60 -5 c-4 -4 -16 -4 -26 2 -16 9 -14 10 8 9 15 -1 23 -6 18 -11z m47 -3 c-4 -3 -7 0 -7 7 0 7 3 10 7 7 3 -4 3 -10 0 -14z m47 9 c3 -5 -1 -9 -9 -9 -8 0 -15 4 -15 9 0 4 4 8 9 8 6 0 12 -4 15 -8z m-247 -8 c-3 -3 -12 -4 -19 -1 -8 3 -5 6 6 6 11 1 17 -2 13 -5z m183 -9 c0 -8 -4 -15 -10 -15 -5 0 -7 7 -4 15 4 8 8 15 10 15 2 0 4 -7 4 -15z m97 8 c-4 -3 -10 -3 -14 0 -3 4 0 7 7 7 7 0 10 -3 7 -7z m-260 -25 c-3 -8 -6 -5 -6 6 -1 11 2 17 5 13 3 -3 4 -12 1 -19z m63 -14 c0 -8 -7 -14 -15 -14 -10 0 -15 10 -15 26 0 22 2 25 15 14 8 -7 15 -19 15 -26z m35 26 c3 -5 4 -10 1 -10 -3 0 -8 5 -11 10 -3 6 -4 10 -1 10 3 0 8 -4 11 -10z m172 -17 c-4 -3 -7 0 -7 7 0 7 3 10 7 7 3 -4 3 -10 0 -14z m68 -13 c3 -5 4 -10 1 -10 -3 0 -8 5 -11 10 -3 6 -4 10 -1 10 3 0 8 -4 11 -10z m-238 -7 c-4 -3 -10 -3 -14 0 -3 4 0 7 7 7 7 0 10 -3 7 -7z m156 0 c-7 -2 -19 -2 -25 0 -7 3 -2 5 12 5 14 0 19 -2 13 -5z m-306 -35 c-3 -7 -5 -2 -5 12 0 14 2 19 5 13 2 -7 2 -19 0 -25z m122 3 c44 -2 67 2 73 11 8 10 9 10 5 -2 -2 -10 -20 -16 -55 -18 -29 -2 -52 -8 -52 -13 0 -6 5 -7 10 -4 6 3 10 1 10 -4 0 -16 -20 -13 -26 4 -4 9 -20 15 -43 16 -20 1 -28 3 -18 6 9 2 17 10 17 16 0 8 3 8 8 2 4 -6 36 -12 71 -14z m196 9 c3 -5 4 -10 1 -10 -3 0 -8 5 -11 10 -3 6 -4 10 -1 10 3 0 8 -4 11 -10z m-40 -20 c3 -4 -3 -7 -13 -6 -9 0 -16 -4 -15 -10 2 -8 -10 -10 -35 -7 -45 6 -58 16 -17 13 43 -3 53 0 30 10 -16 6 -14 8 13 7 18 0 35 -3 37 -7z m38 -25 c-3 -8 -10 -15 -15 -15 -7 0 -6 5 1 13 6 8 7 18 3 22 -4 5 -2 5 5 1 7 -4 10 -13 6 -21z m-253 5 c11 -8 9 -9 -12 -8 -16 1 -28 6 -28 10 0 11 22 10 40 -2z m85 0 c3 -5 4 -10 1 -10 -3 0 -8 5 -11 10 -3 6 -4 10 -1 10 3 0 8 -4 11 -10z m-158 -17 c-4 -3 -10 -3 -14 0 -3 4 0 7 7 7 7 0 10 -3 7 -7z"/>
 <path d="M358 3 c199 -2 525 -2 725 0 199 1 36 2 -363 2 -399 0 -562 -1 -362 -2z"/>
 </g>
<g id="layer105" fill="#d9471f" stroke="none">
 <path d="M0 735 l0 -266 245 3 c210 3 245 1 249 -12 2 -9 4 -6 5 7 0 12 -3 25 -9 28 -5 3 -10 11 -10 16 0 6 4 8 9 4 5 -3 17 5 25 17 12 17 16 19 16 6 0 -9 -4 -18 -9 -20 -6 -2 -6 -18 -2 -38 l7 -35 7 49 c4 27 7 63 8 80 0 29 1 30 10 8 5 -13 7 -28 4 -32 -3 -5 -8 -46 -10 -92 -3 -46 -7 -92 -8 -103 -2 -19 4 -20 178 -20 l180 0 -2 25 c-6 100 -14 184 -18 190 -3 5 -1 19 4 32 8 20 10 17 10 -20 1 -26 5 -41 11 -37 5 3 10 -1 10 -10 0 -9 6 -15 13 -14 26 3 36 -2 31 -16 -5 -13 25 -15 240 -15 l246 0 0 265 0 265 -720 0 -720 0 0 -265z m736 6 c-3 -5 -15 -7 -26 -4 -28 7 -25 13 6 13 14 0 23 -4 20 -9z m-59 -8 c-4 -3 -10 -3 -14 0 -3 4 0 7 7 7 7 0 10 -3 7 -7z m90 0 c-4 -3 -10 -3 -14 0 -3 4 0 7 7 7 7 0 10 -3 7 -7z m-120 -9 c-3 -3 -12 -4 -19 -1 -8 3 -5 6 6 6 11 1 17 -2 13 -5z m160 0 c-3 -3 -12 -4 -19 -1 -8 3 -5 6 6 6 11 1 17 -2 13 -5z m-200 -11 c-4 -3 -10 -3 -14 0 -3 4 0 7 7 7 7 0 10 -3 7 -7z m230 0 c-4 -3 -10 -3 -14 0 -3 4 0 7 7 7 7 0 10 -3 7 -7z m-275 -74 l-10 -34 -1 45 c-1 31 2 41 10 33 7 -7 7 -21 1 -44z m317 9 l-1 -43 -8 35 c-8 32 -6 50 6 50 2 0 4 -19 3 -42z m-117 -6 c10 -4 -12 -7 -47 -7 -35 0 -57 3 -47 7 9 4 31 7 47 7 17 0 38 -3 47 -7z m-17 -23 c15 -7 13 -8 -12 -3 -17 3 -34 1 -37 -5 -4 -6 -13 -8 -21 -4 -11 4 -15 -2 -15 -21 0 -19 -5 -26 -20 -26 -11 0 -20 5 -20 10 0 6 7 10 15 10 8 0 15 9 15 19 0 14 8 21 28 24 42 6 46 6 67 -4z m47 -8 c-10 -6 -11 -19 -3 -57 l10 -49 -1 40 c0 59 3 65 12 20 12 -60 7 -64 -78 -67 -71 -3 -77 -5 -80 -25 -2 -13 1 -23 7 -23 6 0 12 -8 12 -17 1 -17 2 -17 6 0 4 14 16 17 73 17 59 0 68 -2 73 -20 5 -19 0 -20 -108 -20 l-112 0 8 47 c5 26 8 54 7 62 -3 13 11 16 79 19 l82 3 -6 29 c-5 29 13 68 26 55 3 -3 0 -10 -7 -14z m-155 -18 c-4 -3 -7 0 -7 7 0 7 3 10 7 7 3 -4 3 -10 0 -14z m-140 -35 c-3 -8 -6 -5 -6 6 -1 11 2 17 5 13 3 -3 4 -12 1 -19z m-460 -65 c-4 -3 -10 -3 -14 0 -3 4 0 7 7 7 7 0 10 -3 7 -7z m1380 0 c-4 -3 -10 -3 -14 0 -3 4 0 7 7 7 7 0 10 -3 7 -7z"/>
 <path d="M630 506 c0 -13 -3 -38 -6 -55 -4 -17 -3 -31 2 -31 5 0 10 25 12 55 2 30 1 55 -2 55 -3 0 -6 -11 -6 -24z"/>
 <path d="M654 521 c7 -10 126 -12 126 -2 0 4 -30 8 -66 9 -36 1 -63 -2 -60 -7z"/>
 <path d="M695 430 c-2 -4 16 -7 41 -9 24 -1 44 0 44 2 0 7 -81 13 -85 7z"/>
 <path d="M800 430 c0 -7 3 -10 7 -7 3 4 3 10 0 14 -4 3 -7 0 -7 -7z"/>
 <path d="M932 480 c0 -14 2 -19 5 -12 2 6 2 18 0 25 -3 6 -5 1 -5 -13z"/>
 <path d="M902 445 c0 -16 2 -22 5 -12 2 9 2 23 0 30 -3 6 -5 -1 -5 -18z"/>
 <path d="M941 434 c0 -11 3 -14 6 -6 3 7 2 16 -1 19 -3 4 -6 -2 -5 -13z"/>
 <path d="M669 303 c-1 -4 -1 -15 0 -25 1 -9 -3 -19 -9 -23 -20 -12 -10 -25 20 -25 17 0 30 5 30 13 0 8 3 8 9 -2 8 -12 12 -12 24 -2 10 8 17 9 22 1 3 -5 19 -10 36 -10 22 0 29 5 29 19 0 11 9 21 21 24 37 10 16 32 -30 32 -28 0 -50 -7 -64 -20 -18 -16 -20 -17 -14 -2 3 9 2 17 -3 17 -6 0 -13 0 -17 0 -5 0 -9 -4 -9 -10 -1 -5 -2 -14 -3 -20 -2 -19 -21 -10 -21 9 0 19 -19 40 -21 24z"/>
 <path d="M570 265 c0 -24 5 -35 15 -35 8 0 15 6 15 13 0 8 4 7 10 -3 9 -13 11 -13 20 0 15 23 12 60 -4 60 -8 0 -17 -6 -19 -12 -4 -10 -6 -10 -6 0 -1 6 -8 12 -16 12 -10 0 -15 -11 -15 -35z"/>
 </g>
<g id="layer106" fill="#e44e24" stroke="none">
 <path d="M358 993 c199 -2 525 -2 725 0 199 1 36 2 -363 2 -399 0 -562 -1 -362 -2z"/>
 <path d="M0 946 l0 -35 676 -1 676 -1 19 22 19 22 0 -21 c0 -12 5 -22 11 -22 17 0 39 27 39 49 l0 21 -720 0 -720 0 0 -34z m30 0 c0 -3 -4 -8 -10 -11 -5 -3 -10 -1 -10 4 0 6 5 11 10 11 6 0 10 -2 10 -4z m1190 -3 c-363 -7 -1170 -7 -1170 0 0 4 296 6 658 5 361 -1 592 -4 512 -5z"/>
 <path d="M723 753 c4 -3 10 -3 14 0 3 4 0 7 -7 7 -7 0 -10 -3 -7 -7z"/>
 <path d="M685 733 c-11 -2 -31 -8 -45 -13 -14 -4 -38 -11 -53 -15 -18 -3 -27 -11 -24 -19 3 -7 1 -48 -4 -92 -5 -43 -12 -121 -15 -172 l-6 -92 179 2 c171 3 178 4 176 23 -1 11 -4 52 -7 90 -22 276 -14 254 -106 276 -41 10 -75 18 -75 17 0 0 -9 -2 -20 -5z m69 -87 c46 -16 51 -24 60 -93 l7 -52 -83 -3 c-77 -3 -83 -5 -86 -25 -3 -22 -1 -23 81 -23 76 0 85 -2 90 -20 5 -19 0 -20 -108 -20 -103 0 -113 2 -109 18 2 9 5 37 7 62 l4 45 76 3 77 3 0 28 c0 22 -7 31 -29 41 -24 10 -33 9 -55 -5 -14 -10 -26 -24 -26 -31 0 -8 -9 -14 -20 -14 -16 0 -20 7 -20 35 0 20 5 37 13 39 6 2 26 8 42 14 40 13 35 13 79 -2z"/>
 <path d="M570 265 c0 -25 4 -35 16 -35 8 0 13 4 9 9 -3 5 -1 12 5 16 5 3 10 -1 10 -9 0 -9 4 -16 9 -16 11 0 21 25 21 51 0 21 -25 26 -34 7 -5 -10 -7 -10 -12 0 -11 24 -24 12 -24 -23z"/>
 <path d="M670 281 c0 -11 -4 -23 -10 -26 -20 -12 -9 -25 20 -25 29 0 40 13 20 25 -5 3 -10 15 -10 26 0 10 -4 19 -10 19 -5 0 -10 -9 -10 -19z"/>
 <path d="M720 265 c0 -34 12 -46 25 -25 4 7 11 8 18 2 7 -6 24 -10 40 -10 20 0 27 5 27 20 0 10 7 21 15 24 30 12 14 24 -30 24 -25 0 -45 -5 -45 -11 0 -5 -4 -8 -9 -5 -5 4 -12 0 -14 -6 -3 -8 -6 -6 -6 5 -2 33 -21 17 -21 -18z m87 -12 c-4 -3 -7 0 -7 7 0 7 3 10 7 7 3 -4 3 -10 0 -14z"/>
 </g>
<g id="layer107" fill="#fdfbfa" stroke="none">
 <path d="M638 718 l-66 -20 -6 -47 c-8 -57 -26 -268 -26 -298 0 -23 0 -23 175 -23 l175 0 0 33 c0 35 -16 221 -26 293 -5 41 -5 42 -67 58 -34 10 -69 19 -77 21 -8 1 -45 -6 -82 -17z m150 -79 c17 -7 22 -16 22 -43 0 -18 3 -47 6 -64 l6 -31 -83 -3 c-78 -3 -84 -4 -87 -25 -3 -22 -1 -23 81 -23 76 0 85 -2 90 -20 5 -19 0 -20 -106 -20 l-112 0 5 62 5 63 78 3 77 3 0 29 c0 23 -5 31 -25 36 -36 9 -76 -4 -82 -26 -3 -11 -14 -20 -25 -20 -16 0 -19 6 -16 37 3 34 7 39 43 50 39 11 77 9 123 -8z"/>
 <path d="M570 265 c0 -39 6 -43 26 -17 13 16 13 16 14 0 0 -41 30 -9 30 33 0 21 -25 26 -34 7 -5 -10 -7 -10 -12 0 -11 24 -24 12 -24 -23z"/>
 <path d="M670 281 c0 -11 -4 -23 -10 -26 -20 -12 -9 -25 20 -25 29 0 40 13 20 25 -5 3 -10 15 -10 26 0 10 -4 19 -10 19 -5 0 -10 -9 -10 -19z"/>
 <path d="M720 265 c0 -36 8 -43 27 -24 8 8 13 8 17 0 14 -22 26 -10 26 24 0 19 -4 35 -10 35 -5 0 -10 -5 -10 -11 0 -5 -4 -8 -9 -5 -5 4 -12 0 -14 -6 -3 -8 -6 -6 -6 5 -2 33 -21 17 -21 -18z"/>
 <path d="M810 265 c0 -19 5 -35 10 -35 6 0 10 11 10 25 0 16 6 25 15 25 8 0 15 5 15 10 0 6 -11 10 -25 10 -22 0 -25 -4 -25 -35z"/>
 </g>

</svg>