<!DOCTYPE svg PUBLIC "-//W3C//DTD SVG 20010904//EN" "http://www.w3.org/TR/2001/REC-SVG-20010904/DTD/svg10.dtd">
<svg version="1.0" xmlns="http://www.w3.org/2000/svg" width="144px" height="101px" viewBox="0 0 1440 1010" preserveAspectRatio="xMidYMid meet">
<g id="layer101" fill="#d26b2f" stroke="none">
 <path d="M0 505 l0 -505 720 0 720 0 0 505 0 505 -720 0 -720 0 0 -505z"/>
 </g>
<g id="layer102" fill="#e6781f" stroke="none">
 <path d="M0 510 l0 -500 720 0 720 0 0 500 0 500 -720 0 -720 0 0 -500z"/>
 </g>
<g id="layer103" fill="#e68e20" stroke="none">
 <path d="M0 729 c0 -252 2 -281 16 -275 9 3 24 0 33 -7 14 -9 71 -11 223 -9 l205 3 14 27 13 27 5 -35 5 -35 7 40 c4 22 5 -8 2 -67 l-5 -108 186 0 187 0 -5 93 c-3 62 -2 77 3 47 l8 -45 1 38 c1 24 6 36 13 32 6 -4 8 -14 4 -24 -4 -10 -3 -12 3 -6 6 6 13 19 16 30 3 11 4 0 1 -24 -2 -30 0 -40 7 -33 6 6 11 23 11 39 0 15 2 22 4 16 7 -19 402 -19 404 0 1 6 5 -4 9 -23 l7 -35 3 45 c1 25 4 37 7 28 5 -21 19 -23 26 -5 3 6 6 -4 7 -23 l2 -35 8 30 c4 17 8 153 9 303 l1 272 -720 0 -720 0 0 -281z m687 -116 c-4 -3 -10 -3 -14 0 -3 4 0 7 7 7 7 0 10 -3 7 -7z m40 0 c-4 -3 -10 -3 -14 0 -3 4 0 7 7 7 7 0 10 -3 7 -7z m140 -10 c-4 -3 -7 0 -7 7 0 7 3 10 7 7 3 -4 3 -10 0 -14z m-210 1 c-3 -3 -12 -4 -19 -1 -8 3 -5 6 6 6 11 1 17 -2 13 -5z m110 -1 c-4 -3 -10 -3 -14 0 -3 4 0 7 7 7 7 0 10 -3 7 -7z m-230 -50 c-3 -10 -5 -4 -5 12 0 17 2 24 5 18 2 -7 2 -21 0 -30z m150 30 c-4 -3 -10 -3 -14 0 -3 4 0 7 7 7 7 0 10 -3 7 -7z m50 0 c-4 -3 -10 -3 -14 0 -3 4 0 7 7 7 7 0 10 -3 7 -7z m-99 -36 c12 -3 10 -5 -5 -6 -18 -1 -23 4 -22 22 1 15 3 17 6 5 2 -9 12 -19 21 -21z m134 -11 c2 -19 0 -32 -4 -30 -8 5 -12 64 -4 64 2 0 6 -15 8 -34z m-50 -64 c-71 -2 -83 -5 -78 -18 3 -9 6 -22 6 -30 0 -21 108 -20 116 1 11 27 34 17 34 -15 l0 -30 -89 0 c-80 0 -89 2 -94 20 -3 11 -1 18 3 15 5 -3 10 9 12 27 l3 33 78 3 77 3 1 37 2 37 6 -40 6 -40 -83 -3z m155 26 c-2 -13 -4 -5 -4 17 -1 22 1 32 4 23 2 -10 2 -28 0 -40z m-245 -7 c-6 -3 -12 -20 -15 -36 -3 -24 -4 -22 -6 12 -1 35 2 41 15 36 9 -3 11 -8 6 -12z m55 2 c-4 -3 -10 -3 -14 0 -3 4 0 7 7 7 7 0 10 -3 7 -7z m66 0 c-7 -2 -19 -2 -25 0 -7 3 -2 5 12 5 14 0 19 -2 13 -5z"/>
 <path d="M780 420 c0 -7 3 -10 7 -7 3 4 3 10 0 14 -4 3 -7 0 -7 -7z"/>
 <path d="M663 393 c20 -2 54 -2 75 0 20 2 3 4 -38 4 -41 0 -58 -2 -37 -4z"/>
 <path d="M485 441 c-6 -5 -26 -12 -45 -14 -29 -3 -28 -4 7 -3 30 1 44 -3 47 -14 2 -8 4 -3 5 13 1 30 0 32 -14 18z"/>
 <path d="M502 370 c0 -14 2 -19 5 -12 2 6 2 18 0 25 -3 6 -5 1 -5 -13z"/>
 <path d="M630 256 c0 -9 6 -16 14 -16 8 0 16 -10 18 -22 5 -38 33 -28 33 12 0 32 -3 35 -32 38 -25 2 -33 -1 -33 -12z"/>
 <path d="M710 256 c0 -8 6 -17 13 -19 10 -4 10 -6 0 -6 -7 -1 -13 -10 -13 -21 0 -15 7 -20 29 -20 31 0 54 21 32 28 -9 3 -9 7 -1 18 17 19 3 34 -31 34 -18 0 -29 -5 -29 -14z"/>
 </g>
<g id="layer104" fill="#df9725" stroke="none">
 <path d="M0 996 c0 -8 6 -17 13 -20 9 -5 9 -7 0 -12 -10 -4 -9 -12 2 -35 19 -36 30 -37 49 -1 11 19 15 22 16 10 0 -17 37 -18 644 -18 563 0 645 2 650 15 9 23 26 18 36 -12 25 -69 27 -68 29 10 l2 77 -721 0 c-614 0 -720 -2 -720 -14z"/>
 <path d="M688 743 c7 -3 16 -2 19 1 4 3 -2 6 -13 5 -11 0 -14 -3 -6 -6z"/>
 <path d="M813 723 c4 -3 10 -3 14 0 3 4 0 7 -7 7 -7 0 -10 -3 -7 -7z"/>
 <path d="M618 691 c-31 -9 -59 -18 -62 -21 -5 -6 -36 -303 -36 -352 l0 -28 186 0 186 0 -5 43 c-4 23 -11 108 -18 189 l-12 147 -68 20 c-78 24 -94 24 -171 2z m144 -81 l36 -10 4 -65 3 -65 -76 0 c-42 0 -78 -2 -81 -5 -3 -3 -3 -17 0 -30 4 -23 9 -25 58 -25 39 0 56 4 60 15 11 27 34 17 34 -15 0 -33 6 -31 -110 -35 -40 -2 -68 2 -72 9 -4 6 -8 37 -8 69 l0 59 33 -3 c17 -1 51 -1 75 0 42 1 43 2 40 33 -2 25 -9 33 -31 39 -35 9 -77 -5 -77 -26 0 -8 -9 -15 -20 -15 -16 0 -20 7 -20 31 0 24 4 30 16 25 8 -3 12 -2 9 3 -11 20 71 26 127 11z"/>
 <path d="M703 603 c4 -3 10 -3 14 0 3 4 0 7 -7 7 -7 0 -10 -3 -7 -7z"/>
 <path d="M693 483 c4 -3 10 -3 14 0 3 4 0 7 -7 7 -7 0 -10 -3 -7 -7z"/>
 <path d="M733 483 c4 -3 10 -3 14 0 3 4 0 7 -7 7 -7 0 -10 -3 -7 -7z"/>
 <path d="M630 256 c0 -9 6 -16 14 -16 8 0 16 -10 18 -22 5 -38 32 -28 32 12 0 32 -3 35 -32 38 -24 2 -32 -1 -32 -12z"/>
 <path d="M710 256 c0 -9 5 -16 12 -16 9 0 9 -3 0 -12 -21 -21 -13 -38 18 -38 25 0 30 4 28 23 0 12 1 29 3 37 3 11 -5 16 -28 18 -25 2 -33 -1 -33 -12z"/>
 </g>
<g id="layer105" fill="#fbaa13" stroke="none">
 <path d="M358 1003 c199 -2 525 -2 725 0 199 1 36 2 -363 2 -399 0 -562 -1 -362 -2z"/>
 <path d="M619 687 l-66 -20 -12 -151 c-7 -83 -15 -166 -18 -183 l-5 -33 184 0 184 0 -17 181 c-9 99 -19 182 -22 185 -6 7 -140 44 -152 43 -5 -1 -40 -10 -76 -22z m157 -77 c19 -7 24 -17 24 -42 0 -18 3 -50 6 -70 l7 -38 -82 0 c-74 0 -81 -2 -81 -20 0 -18 7 -20 54 -20 37 0 56 4 59 14 8 20 42 13 41 -7 -3 -61 4 -57 -99 -57 l-95 0 0 39 c0 21 -3 53 -6 70 l-6 31 81 0 c73 0 81 2 81 19 0 40 -48 63 -94 45 -9 -3 -16 -15 -16 -26 0 -14 -6 -18 -20 -16 -12 2 -21 6 -20 11 0 4 0 20 0 35 0 24 6 30 38 39 38 11 86 9 128 -7z"/>
 <path d="M635 250 c3 -5 13 -10 21 -10 8 0 14 -10 14 -26 0 -14 4 -23 10 -19 6 3 10 19 10 36 0 26 -3 29 -31 29 -17 0 -28 -4 -24 -10z"/>
 <path d="M719 246 c9 -10 9 -16 1 -21 -19 -11 -5 -28 23 -29 16 -1 27 4 27 11 0 7 -5 13 -12 13 -9 0 -9 3 0 12 20 20 14 28 -19 28 -26 0 -29 -2 -20 -14z"/>
 </g>
<g id="layer106" fill="#dfe6df" stroke="none">
 <path d="M619 687 l-66 -20 -12 -151 c-7 -83 -15 -166 -18 -183 l-5 -33 184 0 184 0 -17 181 c-9 99 -19 182 -22 185 -6 7 -140 44 -152 43 -5 -1 -40 -10 -76 -22z m157 -77 c19 -7 24 -17 24 -42 0 -18 3 -50 6 -70 l7 -38 -82 0 c-74 0 -81 -2 -81 -20 0 -18 7 -20 54 -20 37 0 56 4 59 14 8 20 42 13 41 -7 -3 -61 4 -57 -99 -57 l-95 0 0 39 c0 21 -3 53 -6 70 l-6 31 81 0 c73 0 81 2 81 19 0 40 -48 63 -94 45 -9 -3 -16 -15 -16 -26 0 -14 -6 -18 -20 -16 -12 2 -21 6 -20 11 0 4 0 20 0 35 0 24 6 30 38 39 38 11 86 9 128 -7z"/>
 <path d="M635 250 c3 -5 13 -10 21 -10 8 0 14 -10 14 -26 0 -14 4 -23 10 -19 6 3 10 19 10 36 0 26 -3 29 -31 29 -17 0 -28 -4 -24 -10z"/>
 <path d="M719 246 c9 -10 9 -16 1 -21 -19 -11 -5 -28 23 -29 16 -1 27 4 27 11 0 7 -5 13 -12 13 -9 0 -9 3 0 12 20 20 14 28 -19 28 -26 0 -29 -2 -20 -14z"/>
 </g>
<g id="layer107" fill="#eae5dd" stroke="none">
 <path d="M619 688 l-66 -21 -12 -151 c-7 -83 -15 -166 -18 -183 l-5 -33 184 0 184 0 -14 133 c-12 123 -16 157 -20 214 -2 17 -13 25 -57 37 -85 25 -106 26 -176 4z m24 -43 c-3 -9 -8 -14 -10 -11 -3 3 -2 9 2 15 9 16 15 13 8 -4z m133 -35 c19 -7 24 -17 24 -42 0 -18 3 -50 6 -70 l7 -38 -82 0 c-74 0 -81 -2 -81 -20 0 -18 7 -20 54 -20 37 0 56 4 59 14 8 20 42 13 41 -7 -3 -61 4 -57 -99 -57 l-95 0 0 43 c0 23 -4 56 -9 72 l-8 30 83 -2 c77 -3 84 -1 84 16 0 40 -48 63 -94 45 -9 -3 -16 -15 -16 -26 0 -14 -6 -18 -20 -16 -12 2 -21 6 -20 11 0 4 0 20 0 35 0 24 6 30 38 39 38 11 86 9 128 -7z m-189 -47 c-4 -3 -7 0 -7 7 0 7 3 10 7 7 3 -4 3 -10 0 -14z"/>
 <path d="M635 250 c3 -5 13 -10 21 -10 8 0 14 -10 14 -26 0 -14 4 -23 10 -19 6 3 10 19 10 36 0 26 -3 29 -31 29 -17 0 -28 -4 -24 -10z"/>
 <path d="M719 246 c9 -10 9 -16 1 -21 -19 -11 -5 -28 23 -29 15 -1 25 3 23 9 -2 5 -10 9 -17 7 -9 -2 -8 3 4 16 24 26 21 32 -14 32 -26 0 -29 -2 -20 -14z"/>
 </g>
<g id="layer108" fill="#ebdfe7" stroke="none">
 <path d="M620 682 c-30 -8 -56 -16 -58 -17 -3 -3 -32 -309 -32 -342 0 -23 0 -23 175 -23 l175 0 0 31 c0 17 -4 28 -10 24 -6 -4 -7 1 -3 11 3 9 0 80 -7 158 l-13 143 -63 16 c-73 20 -91 20 -164 -1z m148 -7 c1 -1 -6 -5 -16 -7 -10 -3 -27 1 -37 9 -17 12 -16 13 15 7 19 -4 36 -8 38 -9z m-113 -5 l-20 -9 20 -1 c11 -2 23 -2 28 -1 4 0 7 -4 7 -10 0 -7 -10 -9 -27 -5 -21 5 -24 4 -13 -4 13 -8 12 -10 -4 -10 -12 0 -16 5 -12 15 3 10 -1 15 -12 16 -14 0 -14 2 3 9 11 5 27 9 35 9 9 0 8 -4 -5 -9z m142 -7 c-4 -3 -10 -3 -14 0 -3 4 0 7 7 7 7 0 10 -3 7 -7z m-177 -19 c0 -2 -7 -4 -15 -4 -8 0 -15 4 -15 10 0 5 7 7 15 4 8 -4 15 -8 15 -10z m219 -36 c-2 -48 -2 -49 -8 -18 -6 33 -3 70 5 70 2 0 3 -24 3 -52z m-262 20 c-3 -8 -6 -5 -6 6 -1 11 2 17 5 13 3 -3 4 -12 1 -19z m208 1 c5 -5 -5 -4 -23 2 -17 6 -32 13 -32 16 0 7 43 -8 55 -18z m22 4 c-4 -3 -7 0 -7 7 0 7 3 10 7 7 3 -4 3 -10 0 -14z m-146 -12 c40 9 65 9 95 0 46 -12 54 -30 54 -117 l0 -44 -75 0 c-68 0 -75 -2 -75 -20 0 -17 7 -20 50 -20 38 0 50 4 50 15 0 9 9 15 25 15 23 0 25 -4 25 -40 l0 -40 -99 0 -98 0 -7 31 c-3 17 -7 50 -7 73 l-2 41 -7 -35 -8 -35 1 35 c2 34 3 35 47 35 52 1 108 24 88 37 -10 6 -9 8 4 8 9 0 18 -10 21 -22 4 -21 4 -20 6 3 1 20 -5 28 -22 33 -35 8 -67 -4 -67 -26 0 -12 4 -17 12 -12 6 4 8 3 5 -3 -3 -5 -22 -7 -41 -5 -33 4 -36 7 -36 37 0 18 -3 42 -6 52 -4 12 -3 14 3 6 7 -10 21 -10 64 -2z m-74 -63 c-3 -7 -5 -2 -5 12 0 14 2 19 5 13 2 -7 2 -19 0 -25z m-20 -30 c-2 -13 -4 -5 -4 17 -1 22 1 32 4 23 2 -10 2 -28 0 -40z m274 -7 c6 10 9 6 9 -14 0 -25 -2 -27 -15 -13 -8 8 -14 23 -14 33 1 17 2 17 6 -1 4 -15 7 -16 14 -5z m-260 -111 c10 0 19 -4 19 -9 0 -5 -9 -7 -19 -4 -16 4 -19 1 -15 -19 4 -21 4 -21 -5 -3 -5 11 -9 45 -8 75 l1 55 3 -47 c3 -40 8 -48 24 -48z m276 1 c-3 -9 -5 -5 -6 9 -2 24 -2 24 -16 6 -13 -17 -15 -18 -15 -3 0 9 5 17 10 17 6 0 10 8 11 18 0 12 3 10 10 -7 5 -14 8 -32 6 -40z m-157 29 c0 -5 -8 -10 -17 -10 -15 0 -16 2 -3 10 19 12 20 12 20 0z m42 -2 c-9 -9 -15 -9 -24 0 -9 9 -7 12 12 12 19 0 21 -3 12 -12z m-195 -90 c-3 -7 -5 -2 -5 12 0 14 2 19 5 13 2 -7 2 -19 0 -25z m53 22 c0 -5 -5 -10 -11 -10 -5 0 -7 5 -4 10 3 6 8 10 11 10 2 0 4 -4 4 -10z m247 -17 c-4 -3 -7 0 -7 7 0 7 3 10 7 7 3 -4 3 -10 0 -14z m-210 0 c-4 -3 -10 -3 -14 0 -3 4 0 7 7 7 7 0 10 -3 7 -7z m100 0 c-4 -3 -10 -3 -14 0 -3 4 0 7 7 7 7 0 10 -3 7 -7z m40 0 c-4 -3 -10 -3 -14 0 -3 4 0 7 7 7 7 0 10 -3 7 -7z m-110 -10 c-4 -3 -10 -3 -14 0 -3 4 0 7 7 7 7 0 10 -3 7 -7z m-120 -30 c-4 -3 -7 0 -7 7 0 7 3 10 7 7 3 -4 3 -10 0 -14z m251 0 c-42 -2 -114 -2 -160 0 -46 1 -11 3 77 3 88 0 125 -2 83 -3z"/>
 <path d="M705 520 c-3 -5 -2 -10 4 -10 5 0 13 5 16 10 3 6 2 10 -4 10 -5 0 -13 -4 -16 -10z"/>
 <path d="M653 253 c10 -3 17 -14 17 -29 0 -13 4 -24 8 -24 4 0 8 14 7 30 0 26 -4 30 -25 29 -17 -1 -19 -3 -7 -6z"/>
 <path d="M740 251 l25 -7 -22 -8 c-33 -11 -29 -36 5 -35 25 2 25 2 3 6 l-23 5 21 14 c29 21 26 34 -6 33 l-28 -1 25 -7z"/>
 </g>
<g id="layer109" fill="#def0f2" stroke="none">
 <path d="M620 682 c-30 -8 -56 -16 -58 -17 -3 -3 -32 -309 -32 -342 0 -23 0 -23 176 -23 l177 0 -6 48 c-3 26 -12 108 -18 183 l-12 135 -66 17 c-77 20 -88 20 -161 -1z m135 -3 c25 -6 42 -15 39 -20 -3 -5 -11 -6 -17 -2 -7 4 -19 8 -27 9 -8 0 -22 3 -30 7 -8 3 -22 8 -30 10 -31 11 21 7 65 -4z m-100 -9 l-20 -9 20 -1 c11 -2 23 -2 28 -1 4 0 7 -4 7 -10 0 -7 -10 -9 -27 -5 -21 5 -24 4 -13 -4 13 -8 12 -10 -4 -10 -12 0 -16 5 -12 15 3 8 1 15 -4 15 -6 0 -10 -5 -10 -11 0 -6 -9 -9 -20 -6 -13 3 -20 0 -20 -9 0 -8 6 -11 18 -7 13 5 14 3 5 -7 -15 -16 -33 -4 -33 22 0 15 5 19 20 15 11 -3 20 -1 20 3 0 9 24 17 50 18 9 0 7 -3 -5 -8z m104 -29 c27 -9 36 -9 43 1 5 10 8 10 8 1 0 -6 -4 -14 -8 -17 -15 -9 -79 13 -93 32 -12 15 -12 16 1 6 8 -6 30 -16 49 -23z m94 -181 c2 -47 2 -69 -2 -50 -7 35 -14 30 -24 -15 -3 -12 -5 -7 -6 13 0 17 4 32 9 32 6 0 10 14 10 30 0 17 -4 30 -10 30 -5 0 -10 12 -9 28 l1 27 9 -25 c5 -17 6 -7 3 30 -7 65 -7 60 -4 85 3 27 16 -79 23 -185z m-55 145 c3 -2 7 -36 10 -75 l5 -70 -77 0 c-69 0 -76 -2 -76 -20 0 -17 7 -20 50 -20 36 0 50 4 50 14 0 8 14 15 35 18 23 3 32 1 25 -6 -6 -6 -10 -25 -10 -43 l0 -33 -99 0 -100 0 -5 43 c-15 120 -17 109 25 105 20 -2 35 0 33 4 -2 3 0 9 6 13 5 3 10 2 10 -4 0 -7 9 -7 25 1 19 8 22 14 13 20 -10 6 -9 8 4 8 9 0 18 -10 21 -22 4 -21 4 -20 6 3 1 20 -5 28 -21 32 -35 9 -68 -3 -68 -24 0 -14 -7 -19 -30 -19 -28 0 -30 2 -30 39 0 38 1 39 52 53 45 12 60 13 97 1 24 -7 46 -15 49 -18z m-217 -70 c5 4 9 2 9 -3 0 -6 -7 -12 -15 -16 -12 -4 -15 4 -13 47 1 50 2 51 5 9 2 -23 8 -40 14 -37z m6 28 c-3 -10 -5 -4 -5 12 0 17 2 24 5 18 2 -7 2 -21 0 -30z m230 20 c-4 -3 -7 0 -7 7 0 7 3 10 7 7 3 -4 3 -10 0 -14z m-117 -23 c0 -5 -8 -10 -17 -10 -15 0 -16 2 -3 10 19 12 20 12 20 0z m-111 -92 l-2 -43 -6 35 c-7 33 -5 50 5 50 2 0 3 -19 3 -42z m-10 -53 c8 0 16 -5 18 -12 3 -7 -4 -10 -19 -7 -13 2 -18 2 -11 -2 7 -3 9 -13 6 -21 -11 -27 -22 14 -21 77 l1 55 6 -45 c4 -29 11 -45 20 -45z m121 25 c0 -5 -7 -10 -15 -10 -8 0 -15 5 -15 10 0 6 7 10 15 10 8 0 15 -4 15 -10z m45 0 c-3 -5 -13 -10 -21 -10 -8 0 -14 5 -14 10 0 6 9 10 21 10 11 0 17 -4 14 -10z m-38 -119 c85 0 158 -3 161 -6 3 -3 -70 -5 -161 -5 l-167 0 2 38 c1 36 1 36 5 5 l4 -32 156 0z m-104 45 c4 -10 1 -13 -8 -9 -8 3 -12 9 -9 14 7 12 11 11 17 -5z m259 -10 c7 4 8 2 4 -4 -11 -18 -26 -14 -25 6 0 10 3 12 6 4 2 -6 10 -9 15 -6z m-225 -3 c-4 -3 -10 -3 -14 0 -3 4 0 7 7 7 7 0 10 -3 7 -7z m28 -3 c3 -5 1 -10 -4 -10 -6 0 -11 5 -11 10 0 6 2 10 4 10 3 0 8 -4 11 -10z m60 0 c-26 -11 -35 -12 -35 -2 0 4 12 8 28 9 23 1 24 1 7 -7z m52 3 c-4 -3 -10 -3 -14 0 -3 4 0 7 7 7 7 0 10 -3 7 -7z m40 -10 c-4 -3 -7 0 -7 7 0 7 3 10 7 7 3 -4 3 -10 0 -14z"/>
 <path d="M705 520 c-3 -6 1 -7 9 -4 18 7 21 14 7 14 -6 0 -13 -4 -16 -10z"/>
 <path d="M653 253 c10 -3 17 -14 17 -29 0 -13 4 -24 8 -24 4 0 8 14 7 30 0 26 -4 30 -25 29 -17 -1 -19 -3 -7 -6z"/>
 <path d="M739 253 l23 -5 -21 -14 c-29 -21 -26 -34 7 -33 25 2 25 2 3 6 l-23 5 21 14 c29 21 26 34 -6 33 -26 -2 -26 -2 -4 -6z"/>
 </g>
<g id="layer110" fill="#eaedef" stroke="none">
 <path d="M661 691 c-11 -7 -11 -10 0 -15 8 -3 2 -4 -13 -1 -29 5 -88 -4 -88 -14 0 -3 11 -6 25 -6 14 0 25 3 25 8 0 4 8 7 18 7 9 0 13 -4 7 -8 -14 -10 -37 -52 -28 -52 5 0 28 6 53 13 37 11 53 11 91 0 42 -12 48 -17 53 -49 4 -19 11 -32 17 -29 5 4 9 -4 10 -17 0 -13 3 -18 5 -11 3 6 1 34 -4 61 -5 27 -5 58 -1 69 6 16 3 22 -11 26 -11 3 -21 -1 -24 -10 -3 -8 -11 -11 -17 -7 -8 5 -8 9 1 14 8 5 7 9 -4 13 -9 4 -15 1 -13 -5 3 -13 -31 -20 -39 -7 -3 5 -15 9 -27 10 -21 0 -21 1 -2 9 l20 9 -20 0 c-11 0 -26 -3 -34 -8z m98 -50 c27 -9 36 -9 43 1 5 10 8 10 8 1 0 -6 -4 -14 -8 -17 -15 -9 -79 13 -93 32 -12 15 -12 16 1 6 8 -6 30 -16 49 -23z m-69 8 c0 -8 -51 -22 -57 -15 -3 2 -2 9 1 15 7 11 56 11 56 0z m127 -66 c-4 -3 -7 0 -7 7 0 7 3 10 7 7 3 -4 3 -10 0 -14z"/>
 <path d="M725 690 c3 -5 11 -10 16 -10 6 0 7 5 4 10 -3 6 -11 10 -16 10 -6 0 -7 -4 -4 -10z"/>
 <path d="M585 641 c3 -5 1 -12 -5 -16 -5 -3 -10 0 -10 7 0 9 -3 9 -10 -2 -5 -8 -10 -22 -10 -30 0 -13 1 -13 10 0 7 11 10 3 10 -29 0 -24 3 -41 7 -38 3 4 11 3 18 -3 8 -6 10 1 6 28 -4 34 -5 35 -12 12 -6 -21 -7 -18 -6 13 1 21 7 42 15 46 12 7 11 9 -2 14 -10 4 -14 3 -11 -2z"/>
 <path d="M845 575 c9 -124 12 -189 8 -162 -5 33 -23 26 -23 -9 0 -14 -4 -23 -9 -20 -5 4 -11 2 -13 -4 -2 -5 -48 -10 -105 -11 -57 0 -100 -5 -97 -10 3 -5 -3 -6 -12 -2 -16 6 -16 7 0 19 16 11 16 13 -3 19 -12 3 -25 3 -31 0 -6 -4 -9 15 -8 52 2 57 2 57 5 10 3 -28 8 -45 14 -41 5 3 15 1 22 -4 9 -8 11 3 7 46 -4 46 -8 57 -22 56 -14 -1 -18 6 -19 30 -1 29 -2 28 -9 -9 -12 -62 -17 -164 -8 -159 4 3 8 -8 8 -25 l0 -30 157 0 c117 0 159 -3 165 -13 6 -8 7 5 4 37 -3 28 -9 86 -12 130 -3 44 -10 98 -15 120 -7 34 -7 31 -4 -20z m-256 -107 l-2 -43 -6 35 c-7 33 -5 50 5 50 2 0 3 -19 3 -42z m-15 -93 c-4 -8 -8 -15 -10 -15 -2 0 -4 7 -4 15 0 8 4 15 10 15 5 0 7 -7 4 -15z m288 -19 c7 4 8 2 4 -4 -11 -18 -26 -14 -25 6 0 10 3 12 6 4 2 -6 10 -9 15 -6z m-225 -3 c-4 -3 -10 -3 -14 0 -3 4 0 7 7 7 7 0 10 -3 7 -7z m37 -5 c-3 -4 -9 -8 -15 -8 -5 0 -9 4 -9 8 0 5 7 9 15 9 8 0 12 -4 9 -9z m51 2 c-26 -11 -35 -12 -35 -2 0 4 12 8 28 9 23 1 24 1 7 -7z m52 3 c-4 -3 -10 -3 -14 0 -3 4 0 7 7 7 7 0 10 -3 7 -7z m40 -10 c-4 -3 -7 0 -7 7 0 7 3 10 7 7 3 -4 3 -10 0 -14z"/>
 <path d="M678 568 c-21 -18 -30 -46 -16 -54 6 -4 8 -3 4 4 -3 6 -2 13 4 17 5 3 10 2 10 -4 0 -6 7 -7 17 -4 11 4 14 3 9 -5 -5 -8 -2 -10 9 -5 9 3 13 9 8 12 -5 3 -9 15 -8 25 0 24 -16 30 -37 14z m22 -8 c0 -5 -8 -10 -17 -10 -15 0 -16 2 -3 10 19 12 20 12 20 0z"/>
 <path d="M738 545 c2 -14 6 -25 8 -25 2 0 4 11 4 25 0 14 -4 25 -9 25 -4 0 -6 -11 -3 -25z"/>
 <path d="M810 500 c0 -6 6 -10 13 -10 8 0 9 -3 1 -8 -6 -4 -11 -23 -11 -42 0 -19 2 -27 4 -17 3 9 9 17 14 17 15 0 10 57 -6 64 -8 3 -15 1 -15 -4z"/>
 <path d="M665 450 c-8 -13 3 -30 18 -30 8 0 7 3 -2 9 -7 5 -10 14 -7 20 4 6 5 11 2 11 -3 0 -8 -4 -11 -10z"/>
 <path d="M701 438 c9 -17 59 -22 59 -6 0 5 -11 6 -25 2 -15 -4 -25 -2 -25 4 0 6 10 13 23 15 14 3 10 4 -10 4 -27 -1 -30 -4 -22 -19z"/>
 <path d="M763 453 c4 -3 10 -3 14 0 3 4 0 7 -7 7 -7 0 -10 -3 -7 -7z"/>
 <path d="M530 320 c0 -7 3 -10 7 -7 3 4 3 10 0 14 -4 3 -7 0 -7 -7z"/>
 <path d="M623 303 c37 -2 97 -2 135 0 37 2 6 3 -68 3 -74 0 -105 -1 -67 -3z"/>
 <path d="M843 303 c4 -3 10 -3 14 0 3 4 0 7 -7 7 -7 0 -10 -3 -7 -7z"/>
 <path d="M668 230 c2 -16 7 -30 11 -30 4 0 7 14 6 30 0 17 -5 30 -11 30 -6 0 -9 -12 -6 -30z"/>
 <path d="M733 253 c4 -3 10 -3 14 0 3 4 0 7 -7 7 -7 0 -10 -3 -7 -7z"/>
 <path d="M731 226 c-9 -11 -9 -16 1 -22 7 -4 10 -4 6 1 -4 4 0 14 10 21 9 7 12 14 6 14 -6 0 -17 -6 -23 -14z"/>
 </g>

</svg>