<?xml version="1.0" standalone="no"?>
<!DOCTYPE svg PUBLIC "-//W3C//DTD SVG 20010904//EN"
 "http://www.w3.org/TR/2001/REC-SVG-20010904/DTD/svg10.dtd">
<svg version="1.0" xmlns="http://www.w3.org/2000/svg"
 width="325.000000pt" height="258.000000pt" viewBox="0 0 325.000000 258.000000"
 preserveAspectRatio="xMidYMid meet">

<g transform="translate(0.000000,258.000000) scale(0.100000,-0.100000)"
fill="#000000" stroke="none">
<path d="M170 1675 l0 -765 55 0 55 0 2 381 3 381 95 2 95 1 3 57 3 57 -98 3
-98 3 0 255 0 255 98 3 98 3 -3 62 -3 62 -152 3 -153 3 0 -766z"/>
<path d="M687 2408 c-13 -18 -36 -51 -51 -73 l-26 -40 0 -631 0 -632 45 -61
45 -61 107 0 108 0 43 63 42 62 0 631 0 631 -47 71 -48 72 -97 0 -97 0 -24
-32z m198 -738 l0 -635 -77 -3 -78 -3 0 641 0 641 78 -3 77 -3 0 -635z"/>
<path d="M1120 1675 l0 -765 160 0 160 0 0 60 0 60 -100 0 -100 0 0 705 0 705
-60 0 -60 0 0 -765z"/>
<path d="M1550 1675 l0 -765 160 0 161 0 -3 57 -3 58 -97 3 -98 3 0 704 0 705
-60 0 -60 0 0 -765z"/>
<path d="M2032 2364 l-52 -76 0 -623 0 -622 48 -66 47 -67 107 0 106 0 46 64
46 65 0 626 0 626 -50 74 -51 75 -97 0 -98 0 -52 -76z m228 -694 l0 -640 -80
0 -80 0 0 640 0 640 80 0 80 0 0 -640z"/>
<path d="M2756 2428 c-4 -12 -29 -423 -43 -700 -5 -111 -8 -128 -23 -128 -17
0 -18 13 -45 390 -2 30 -9 123 -15 205 -6 83 -13 169 -16 193 l-5 43 -57 -3
-56 -3 2 -45 c1 -25 9 -175 17 -335 8 -159 21 -438 30 -620 9 -181 18 -372 21
-423 l6 -92 58 0 58 0 10 63 c6 34 18 105 26 157 80 500 74 470 91 470 12 0
29 -45 24 -66 -1 -5 0 -16 3 -24 3 -8 13 -62 22 -120 25 -168 66 -423 72 -453
5 -26 8 -27 65 -27 58 0 59 1 59 28 0 15 7 160 15 322 8 162 21 446 30 630 8
184 18 384 21 443 l6 108 -59 -3 -58 -3 -12 -155 c-6 -85 -19 -258 -28 -385
-8 -126 -18 -245 -21 -262 -6 -41 -34 -45 -34 -5 0 27 -9 169 -35 567 -8 121
-15 226 -15 233 0 8 -18 12 -55 12 -36 0 -57 -4 -59 -12z"/>
<path d="M150 770 c0 -15 7 -20 25 -20 l25 0 0 -280 0 -280 25 0 25 0 0 280 0
280 25 0 c18 0 25 5 25 20 0 18 -7 20 -75 20 -68 0 -75 -2 -75 -20z"/>
<path d="M360 490 l0 -301 23 3 c22 3 22 6 25 151 l3 147 24 0 25 0 0 -150 0
-150 25 0 25 0 0 300 0 300 -25 0 -25 0 0 -125 0 -125 -25 0 -24 0 -3 123 c-3
118 -4 122 -25 125 l-23 3 0 -301z"/>
<path d="M580 490 l0 -300 65 0 c63 0 65 1 65 25 0 23 -4 25 -40 25 l-40 0 0
125 0 125 41 0 c36 0 40 2 37 23 -2 18 -10 23 -40 25 l-38 3 0 100 0 99 41 0
c36 0 40 2 37 23 -3 20 -9 22 -65 25 l-63 3 0 -301z"/>
<path d="M970 490 l0 -300 25 0 25 0 0 150 0 150 25 0 25 0 0 -150 0 -150 25
0 25 0 0 142 c0 118 -3 145 -17 160 -15 17 -15 19 0 36 13 15 17 39 17 111 0
78 -3 98 -21 122 -18 26 -26 29 -75 29 l-54 0 0 -300z m100 145 l0 -105 -25 0
-25 0 0 105 0 105 25 0 25 0 0 -105z"/>
<path d="M1226 778 c-4 -13 -56 -552 -56 -576 0 -8 9 -12 23 -10 17 2 23 10
25 38 6 95 13 120 31 120 21 0 31 -26 31 -87 0 -54 8 -73 31 -73 24 0 24 0 -9
330 -26 258 -28 265 -50 268 -12 2 -24 -3 -26 -10z m34 -297 c0 -27 3 -56 6
-65 4 -11 0 -16 -12 -16 -17 0 -19 7 -16 65 4 76 22 89 22 16z"/>
<path d="M1387 783 c-4 -3 -7 -138 -7 -300 l0 -293 58 0 c53 0 60 3 80 30 20
26 22 42 22 146 0 95 -3 121 -17 136 -15 17 -15 19 0 36 13 15 17 39 17 115 0
91 -1 96 -26 116 -26 21 -112 30 -127 14z m101 -140 l3 -103 -31 0 -31 0 2 98
c1 53 3 100 5 103 2 4 14 6 26 5 22 -1 23 -5 26 -103z m2 -273 l0 -130 -29 0
-30 0 0 121 c-1 67 2 125 5 130 3 5 16 9 30 9 l24 0 0 -130z"/>
<path d="M1607 783 c-4 -3 -7 -138 -7 -300 l0 -293 55 0 c48 0 59 4 80 27 23
26 24 36 25 147 0 97 -3 123 -17 138 -15 17 -15 19 0 36 13 15 17 39 17 115 0
94 0 96 -29 116 -28 20 -109 30 -124 14z m101 -140 l3 -103 -31 0 -30 0 0 98
c0 54 2 101 5 104 3 3 16 5 28 4 21 -1 22 -6 25 -103z m0 -275 l3 -128 -31 0
-30 0 0 123 c0 68 3 127 7 131 4 4 16 6 28 4 19 -3 20 -11 23 -130z"/>
<path d="M1830 491 l0 -301 25 0 25 0 -2 298 -3 297 -22 3 -23 3 0 -300z"/>
<path d="M1930 770 c0 -15 7 -20 25 -20 l25 0 0 -280 0 -280 25 0 25 0 0 280
0 280 25 0 c18 0 25 5 25 20 0 18 -7 20 -75 20 -68 0 -75 -2 -75 -20z"/>
<path d="M2356 759 l-26 -31 0 -240 c0 -227 1 -242 21 -269 17 -24 27 -29 63
-29 35 0 44 4 59 29 10 17 17 50 17 80 0 48 -2 51 -25 51 -27 0 -28 -3 -25
-67 1 -42 1 -43 -29 -43 l-31 0 2 248 3 247 28 3 c26 3 27 1 27 -37 0 -37 2
-41 25 -41 22 0 25 4 25 36 0 87 -81 126 -134 63z"/>
<path d="M2551 756 c-20 -31 -21 -48 -21 -273 0 -228 1 -242 21 -267 27 -35
92 -37 120 -4 17 21 18 43 19 271 0 236 -1 250 -21 278 -16 23 -28 29 -59 29
-33 0 -41 -5 -59 -34z m89 -266 l0 -250 -30 0 -30 0 0 250 0 250 30 0 30 0 0
-250z"/>
<path d="M2747 783 c-4 -3 -7 -138 -7 -300 l0 -293 63 0 c96 0 97 2 97 297 0
220 -2 241 -20 271 -18 30 -24 32 -73 32 -30 0 -57 -3 -60 -7z m103 -293 l0
-250 -30 0 -30 0 0 250 0 250 30 0 30 0 0 -250z"/>
<path d="M2967 783 c-4 -3 -7 -138 -7 -300 l0 -293 65 0 c63 0 65 1 65 25 0
23 -4 25 -40 25 l-40 0 0 125 0 125 40 0 c36 0 40 3 40 25 0 23 -4 25 -40 25
l-40 0 0 100 0 100 40 0 c36 0 40 3 40 25 0 24 -3 25 -58 25 -32 0 -62 -3 -65
-7z"/>
</g>
</svg>
