<!DOCTYPE svg PUBLIC "-//W3C//DTD SVG 20010904//EN" "http://www.w3.org/TR/2001/REC-SVG-20010904/DTD/svg10.dtd">
<svg version="1.0" xmlns="http://www.w3.org/2000/svg" width="144px" height="99px" viewBox="0 0 1440 990" preserveAspectRatio="xMidYMid meet">
<g id="layer101" fill="#5ca417" stroke="none">
 <path d="M0 495 l0 -495 720 0 720 0 0 495 0 495 -720 0 -720 0 0 -495z"/>
 </g>
<g id="layer102" fill="#5e9223" stroke="none">
 <path d="M0 495 l0 -495 720 0 720 0 0 495 0 495 -720 0 -720 0 0 -495z m775 145 c3 -5 4 -10 1 -10 -3 0 -8 5 -11 10 -3 6 -4 10 -1 10 3 0 8 -4 11 -10z m-28 -16 c-3 -3 -12 -4 -19 -1 -8 3 -5 6 6 6 11 1 17 -2 13 -5z m3 -28 c0 -11 -19 -15 -25 -6 -3 5 1 10 9 10 9 0 16 -2 16 -4z m15 -26 c-3 -5 -12 -10 -18 -10 -7 0 -6 4 3 10 19 12 23 12 15 0z m-38 -7 c-4 -3 -10 -3 -14 0 -3 4 0 7 7 7 7 0 10 -3 7 -7z m138 -43 c3 -5 4 -10 1 -10 -3 0 -8 5 -11 10 -3 6 -4 10 -1 10 3 0 8 -4 11 -10z m-428 -47 c-4 -3 -7 0 -7 7 0 7 3 10 7 7 3 -4 3 -10 0 -14z m298 7 c3 -5 4 -10 1 -10 -3 0 -8 5 -11 10 -3 6 -4 10 -1 10 3 0 8 -4 11 -10z m292 3 c-4 -3 -10 -3 -14 0 -3 4 0 7 7 7 7 0 10 -3 7 -7z m-479 -38 c0 -14 -4 -25 -9 -25 -4 0 -7 13 -7 30 1 35 16 31 16 -5z m272 29 c0 -3 -7 -12 -15 -20 -16 -17 -18 -14 -9 10 6 15 24 23 24 10z m-383 -31 c-4 -3 -7 0 -7 7 0 7 3 10 7 7 3 -4 3 -10 0 -14z m293 2 c7 -9 8 -15 2 -15 -5 0 -12 7 -16 15 -3 8 -4 15 -2 15 2 0 9 -7 16 -15z m167 8 c-4 -3 -10 -3 -14 0 -3 4 0 7 7 7 7 0 10 -3 7 -7z m-530 -30 c-4 -3 -7 0 -7 7 0 7 3 10 7 7 3 -4 3 -10 0 -14z m530 -25 c-3 -7 -5 -2 -5 12 0 14 2 19 5 13 2 -7 2 -19 0 -25z m-170 5 c-4 -3 -10 -3 -14 0 -3 4 0 7 7 7 7 0 10 -3 7 -7z m190 -20 c-4 -3 -7 0 -7 7 0 7 3 10 7 7 3 -4 3 -10 0 -14z m-340 0 c-4 -3 -10 -3 -14 0 -3 4 0 7 7 7 7 0 10 -3 7 -7z m180 0 c-4 -3 -10 -3 -14 0 -3 4 0 7 7 7 7 0 10 -3 7 -7z m191 -24 c-3 -8 -7 -3 -11 10 -4 17 -3 21 5 13 5 -5 8 -16 6 -23z m-51 -41 c-2 -13 -4 -3 -4 22 0 25 2 35 4 23 2 -13 2 -33 0 -45z m-452 34 c-3 -3 -11 0 -18 7 -9 10 -8 11 6 5 10 -3 15 -9 12 -12z m562 1 c-4 -3 -10 -3 -14 0 -3 4 0 7 7 7 7 0 10 -3 7 -7z m-180 -30 c-4 -3 -7 0 -7 7 0 7 3 10 7 7 3 -4 3 -10 0 -14z m-407 -3 c0 -5 -2 -10 -4 -10 -3 0 -8 5 -11 10 -3 6 -1 10 4 10 6 0 11 -4 11 -10z m55 0 c-3 -5 -11 -10 -16 -10 -6 0 -7 5 -4 10 3 6 11 10 16 10 6 0 7 -4 4 -10z m110 0 c-3 -5 -10 -10 -16 -10 -5 0 -9 5 -9 10 0 6 7 10 16 10 8 0 12 -4 9 -10z m450 0 c3 -5 4 -10 1 -10 -3 0 -8 5 -11 10 -3 6 -4 10 -1 10 3 0 8 -4 11 -10z m-88 -17 c-4 -3 -7 0 -7 7 0 7 3 10 7 7 3 -4 3 -10 0 -14z m48 7 c3 -5 4 -10 1 -10 -3 0 -8 5 -11 10 -3 6 -4 10 -1 10 3 0 8 -4 11 -10z m-188 -77 c-4 -3 -7 0 -7 7 0 7 3 10 7 7 3 -4 3 -10 0 -14z"/>
 </g>
<g id="layer103" fill="#649a22" stroke="none">
 <path d="M0 500 l0 -490 723 2 722 3 -717 2 c-467 2 -718 7 -718 13 0 7 248 10 715 10 l715 0 0 475 0 475 -720 0 -720 0 0 -490z m775 140 c3 -5 4 -10 1 -10 -3 0 -8 5 -11 10 -3 6 -4 10 -1 10 3 0 8 -4 11 -10z m-28 -16 c-3 -3 -12 -4 -19 -1 -8 3 -5 6 6 6 11 1 17 -2 13 -5z m3 -28 c0 -11 -19 -15 -25 -6 -3 5 1 10 9 10 9 0 16 -2 16 -4z m15 -26 c-3 -5 -12 -10 -18 -10 -7 0 -6 4 3 10 19 12 23 12 15 0z m-38 -7 c-4 -3 -10 -3 -14 0 -3 4 0 7 7 7 7 0 10 -3 7 -7z m138 -43 c3 -5 4 -10 1 -10 -3 0 -8 5 -11 10 -3 6 -4 10 -1 10 3 0 8 -4 11 -10z m-428 -47 c-4 -3 -7 0 -7 7 0 7 3 10 7 7 3 -4 3 -10 0 -14z m298 7 c3 -5 4 -10 1 -10 -3 0 -8 5 -11 10 -3 6 -4 10 -1 10 3 0 8 -4 11 -10z m292 3 c-4 -3 -10 -3 -14 0 -3 4 0 7 7 7 7 0 10 -3 7 -7z m-479 -38 c0 -14 -4 -25 -9 -25 -4 0 -7 13 -7 30 1 35 16 31 16 -5z m272 29 c0 -3 -7 -12 -15 -20 -16 -17 -18 -14 -9 10 6 15 24 23 24 10z m-383 -31 c-4 -3 -7 0 -7 7 0 7 3 10 7 7 3 -4 3 -10 0 -14z m293 2 c7 -9 8 -15 2 -15 -5 0 -12 7 -16 15 -3 8 -4 15 -2 15 2 0 9 -7 16 -15z m167 8 c-4 -3 -10 -3 -14 0 -3 4 0 7 7 7 7 0 10 -3 7 -7z m-530 -30 c-4 -3 -7 0 -7 7 0 7 3 10 7 7 3 -4 3 -10 0 -14z m530 -25 c-3 -7 -5 -2 -5 12 0 14 2 19 5 13 2 -7 2 -19 0 -25z m-170 5 c-4 -3 -10 -3 -14 0 -3 4 0 7 7 7 7 0 10 -3 7 -7z m190 -20 c-4 -3 -7 0 -7 7 0 7 3 10 7 7 3 -4 3 -10 0 -14z m-340 0 c-4 -3 -10 -3 -14 0 -3 4 0 7 7 7 7 0 10 -3 7 -7z m180 0 c-4 -3 -10 -3 -14 0 -3 4 0 7 7 7 7 0 10 -3 7 -7z m191 -24 c-3 -8 -7 -3 -11 10 -4 17 -3 21 5 13 5 -5 8 -16 6 -23z m-51 -46 c-2 -16 -4 -5 -4 22 0 28 2 40 4 28 2 -13 2 -35 0 -50z m-452 39 c-3 -3 -11 0 -18 7 -9 10 -8 11 6 5 10 -3 15 -9 12 -12z m360 8 c3 -5 4 -10 1 -10 -3 0 -8 5 -11 10 -3 6 -4 10 -1 10 3 0 8 -4 11 -10z m202 -7 c-4 -3 -10 -3 -14 0 -3 4 0 7 7 7 7 0 10 -3 7 -7z m-180 -30 c-4 -3 -7 0 -7 7 0 7 3 10 7 7 3 -4 3 -10 0 -14z m-407 -3 c0 -5 -2 -10 -4 -10 -3 0 -8 5 -11 10 -3 6 -1 10 4 10 6 0 11 -4 11 -10z m55 0 c-3 -5 -11 -10 -16 -10 -6 0 -7 5 -4 10 3 6 11 10 16 10 6 0 7 -4 4 -10z m110 0 c-3 -5 -10 -10 -16 -10 -5 0 -9 5 -9 10 0 6 7 10 16 10 8 0 12 -4 9 -10z m450 0 c3 -5 4 -10 1 -10 -3 0 -8 5 -11 10 -3 6 -4 10 -1 10 3 0 8 -4 11 -10z m-88 -17 c-4 -3 -7 0 -7 7 0 7 3 10 7 7 3 -4 3 -10 0 -14z m48 7 c3 -5 4 -10 1 -10 -3 0 -8 5 -11 10 -3 6 -4 10 -1 10 3 0 8 -4 11 -10z m-188 -77 c-4 -3 -7 0 -7 7 0 7 3 10 7 7 3 -4 3 -10 0 -14z m-750 -170 c-4 -3 -10 -3 -14 0 -3 4 0 7 7 7 7 0 10 -3 7 -7z"/>
 </g>
<g id="layer104" fill="#74af30" stroke="none">
 <path d="M0 690 l0 -300 23 -1 c21 -1 21 -1 -3 -9 -24 -8 -23 -8 8 -9 17 -1 32 -5 32 -11 0 -11 177 -13 284 -3 61 5 67 8 51 20 -27 19 -8 16 26 -4 28 -16 31 -16 62 2 25 15 29 15 19 3 -18 -22 -70 -40 -74 -26 -2 6 -9 4 -16 -4 -10 -12 -6 -15 23 -15 19 0 35 4 35 9 0 4 8 8 18 8 10 0 23 5 30 12 9 9 12 8 12 -5 0 -9 5 -17 10 -17 6 0 10 8 10 18 0 13 2 14 9 3 5 -7 23 -15 41 -17 19 -2 30 -1 27 2 -4 4 -16 7 -27 8 -11 0 -19 5 -18 9 4 11 -30 29 -41 22 -5 -3 -12 -1 -15 4 -10 16 41 5 77 -18 19 -11 43 -21 53 -22 18 0 18 -1 0 -8 -11 -4 -20 -15 -22 -24 -1 -10 2 -15 7 -11 5 3 7 9 4 14 -3 5 8 11 25 15 16 4 34 14 39 23 5 9 13 14 17 10 4 -4 1 -14 -6 -23 -7 -8 -9 -15 -5 -15 4 0 2 -7 -5 -15 -9 -10 -9 -15 -1 -15 10 0 15 14 12 33 -1 5 4 7 11 4 7 -2 12 -9 11 -15 -2 -6 4 -9 13 -5 13 5 13 8 2 15 -9 7 -7 8 10 5 12 -3 22 0 22 5 0 6 6 5 15 -2 10 -9 15 -9 15 -1 0 12 -10 14 -51 11 -16 -1 -29 5 -33 15 -9 23 18 29 48 10 14 -9 29 -14 35 -11 13 8 18 -12 16 -61 l-2 -42 29 15 c26 14 28 18 30 87 l2 72 6 -70 c6 -69 7 -69 8 -17 1 30 5 52 10 50 4 -2 23 -12 42 -22 35 -17 37 -17 73 4 42 25 47 50 15 74 l-23 17 25 -13 c14 -7 27 -12 30 -11 3 1 5 -11 5 -27 0 -15 -2 -27 -5 -25 -3 2 -20 -7 -38 -20 l-33 -23 43 1 c24 1 108 0 187 -2 112 -2 145 0 152 10 8 12 10 12 18 1 7 -11 9 -11 14 2 4 10 1 16 -8 16 -8 0 -15 4 -15 9 0 5 8 8 18 7 16 -1 17 20 20 297 l2 297 -720 0 -720 0 0 -300z m775 -50 c3 -5 4 -10 1 -10 -3 0 -8 5 -11 10 -3 6 -4 10 -1 10 3 0 8 -4 11 -10z m-28 -16 c-3 -3 -12 -4 -19 -1 -8 3 -5 6 6 6 11 1 17 -2 13 -5z m3 -28 c0 -11 -19 -15 -25 -6 -3 5 1 10 9 10 9 0 16 -2 16 -4z m20 -26 c-8 -5 -19 -10 -25 -10 -5 0 -3 5 5 10 8 5 20 10 25 10 6 0 3 -5 -5 -10z m-43 -7 c-4 -3 -10 -3 -14 0 -3 4 0 7 7 7 7 0 10 -3 7 -7z m0 -20 c-4 -3 -10 -3 -14 0 -3 4 0 7 7 7 7 0 10 -3 7 -7z m-42 -13 c3 -5 4 -10 1 -10 -3 0 -8 5 -11 10 -3 6 -4 10 -1 10 3 0 8 -4 11 -10z m152 3 c-4 -3 -10 -3 -14 0 -3 4 0 7 7 7 7 0 10 -3 7 -7z m198 -11 c-3 -3 -11 0 -18 7 -9 10 -8 11 6 5 10 -3 15 -9 12 -12z m-170 -2 c3 -5 4 -10 1 -10 -3 0 -8 5 -11 10 -3 6 -4 10 -1 10 3 0 8 -4 11 -10z m70 0 c3 -5 4 -10 1 -10 -3 0 -8 5 -11 10 -3 6 -4 10 -1 10 3 0 8 -4 11 -10z m-215 -10 c-8 -5 -19 -10 -25 -10 -5 0 -3 5 5 10 8 5 20 10 25 10 6 0 3 -5 -5 -10z m-153 -7 c-4 -3 -10 -3 -14 0 -3 4 0 7 7 7 7 0 10 -3 7 -7z m-130 -30 c-4 -3 -7 0 -7 7 0 7 3 10 7 7 3 -4 3 -10 0 -14z m303 -18 c0 -31 -10 -55 -22 -55 -6 0 -5 6 2 15 9 10 9 15 1 15 -15 0 -14 30 2 31 9 0 9 2 -1 6 -6 2 -10 9 -6 14 9 15 24 0 24 -26z m290 31 c0 -2 -7 -7 -16 -10 -8 -3 -12 -2 -9 4 6 10 25 14 25 6z m-663 -23 c-4 -3 -7 0 -7 7 0 7 3 10 7 7 3 -4 3 -10 0 -14z m181 -18 c0 -14 -4 -28 -9 -31 -5 -2 -8 11 -7 30 1 40 16 40 16 1z m272 29 c0 -3 -7 -12 -15 -20 -16 -17 -18 -14 -9 10 6 15 24 23 24 10z m-353 -29 c-9 -21 -37 -19 -36 3 0 10 3 12 6 5 7 -19 23 -16 23 4 0 9 3 14 6 10 4 -3 4 -13 1 -22z m443 11 c0 -11 -19 -15 -25 -6 -3 5 1 10 9 10 9 0 16 -2 16 -4z m-564 -28 c5 -7 3 -8 -6 -3 -10 6 -12 4 -7 -8 3 -9 2 -19 -2 -21 -6 -4 -8 30 -2 42 3 5 10 1 17 -10z m21 -20 c-3 -7 -5 -2 -5 12 0 14 2 19 5 13 2 -7 2 -19 0 -25z m333 -18 c0 -5 -5 -10 -11 -10 -5 0 -7 5 -4 10 3 6 8 10 11 10 2 0 4 -4 4 -10z m-623 -7 c-4 -3 -10 -3 -14 0 -3 4 0 7 7 7 7 0 10 -3 7 -7z m588 -13 c-3 -5 -12 -10 -18 -10 -7 0 -6 4 3 10 19 12 23 12 15 0z m35 -10 c0 -5 -7 -10 -16 -10 -8 0 -12 5 -9 10 3 6 10 10 16 10 5 0 9 -4 9 -10z"/>
 <path d="M920 380 c0 -5 5 -10 11 -10 5 0 7 5 4 10 -3 6 -8 10 -11 10 -2 0 -4 -4 -4 -10z"/>
 <path d="M755 370 c3 -5 11 -10 16 -10 6 0 7 5 4 10 -3 6 -11 10 -16 10 -6 0 -7 -4 -4 -10z"/>
 <path d="M583 363 c4 -3 10 -3 14 0 3 4 0 7 -7 7 -7 0 -10 -3 -7 -7z"/>
 <path d="M957 354 c6 -3 9 -17 7 -32 -4 -21 -2 -24 7 -15 6 6 19 9 28 7 9 -3 5 2 -9 11 l-25 16 25 -5 c24 -5 24 -4 6 9 -11 8 -27 15 -35 14 -10 0 -11 -3 -4 -5z"/>
 <path d="M930 340 c0 -7 3 -10 7 -7 3 4 3 10 0 14 -4 3 -7 0 -7 -7z"/>
 <path d="M428 313 c7 -3 16 -2 19 1 4 3 -2 6 -13 5 -11 0 -14 -3 -6 -6z"/>
 <path d="M798 306 c4 -6 7 -14 7 -18 0 -20 15 -17 15 4 0 15 -6 25 -15 25 -8 0 -11 -5 -7 -11z"/>
 <path d="M863 253 c4 -3 10 -3 14 0 3 4 0 7 -7 7 -7 0 -10 -3 -7 -7z"/>
 </g>
<g id="layer105" fill="#82c03c" stroke="none">
 <path d="M0 855 c0 -121 2 -134 17 -128 10 4 14 2 10 -5 -5 -7 85 -11 317 -12 256 0 325 2 329 12 2 7 8 10 12 5 10 -8 -10 -32 -27 -32 -6 0 -13 -7 -15 -15 -4 -13 -3 -13 6 0 6 8 11 12 11 7 0 -4 11 0 24 8 21 14 71 16 365 15 l341 0 10 22 c7 18 9 19 9 6 1 -25 18 -22 25 5 3 12 6 73 6 135 l0 112 -720 0 -720 0 0 -135z"/>
 <path d="M704 691 c-2 -3 14 -15 36 -28 33 -20 40 -29 40 -56 0 -33 -31 -64 -51 -52 -5 4 -8 2 -7 -3 4 -15 -9 -14 -37 4 -19 13 -25 25 -25 55 0 38 14 61 23 37 2 -7 8 -10 12 -5 14 13 -12 29 -34 22 -19 -6 -22 -13 -19 -57 3 -47 6 -53 39 -70 33 -17 38 -17 67 -2 17 8 35 20 38 26 4 6 9 5 15 -3 6 -11 11 -11 20 -2 13 13 3 37 -12 28 -5 -4 -9 10 -9 29 0 28 -6 38 -30 52 -19 12 -25 21 -18 25 6 4 -1 6 -16 6 -15 -1 -30 -4 -32 -6z"/>
 <path d="M775 691 c-3 -5 -2 -12 3 -15 5 -3 9 1 9 9 0 17 -3 19 -12 6z"/>
 <path d="M823 693 c4 -3 10 -3 14 0 3 4 0 7 -7 7 -7 0 -10 -3 -7 -7z"/>
 <path d="M715 650 c3 -5 2 -11 -3 -14 -12 -7 -2 -66 10 -66 6 0 8 7 4 15 -3 9 0 15 9 15 9 0 12 -6 8 -16 -4 -12 -2 -15 8 -12 7 2 15 18 16 35 2 27 -2 33 -28 42 -16 5 -27 6 -24 1z m32 -26 c-3 -3 -12 -4 -19 -1 -8 3 -5 6 6 6 11 1 17 -2 13 -5z"/>
 <path d="M680 580 c0 -5 5 -10 10 -10 6 0 10 5 10 10 0 6 -4 10 -10 10 -5 0 -10 -4 -10 -10z"/>
 <path d="M597 520 c-14 -11 -30 -20 -36 -20 -18 0 -6 -89 15 -105 47 -37 54 -38 95 -9 37 25 40 31 37 68 -2 31 -9 43 -26 52 -13 6 -29 17 -35 23 -15 15 -20 14 -50 -9z"/>
 <path d="M955 516 c-38 -20 -40 -24 -40 -66 0 -35 4 -47 21 -55 12 -6 29 -17 38 -24 13 -11 22 -9 56 10 22 12 40 29 40 37 0 37 -84 59 -93 25 -3 -13 -5 -12 -6 5 -1 17 8 27 34 38 41 17 44 27 13 41 -18 8 -32 5 -63 -11z"/>
 <path d="M768 512 c-24 -14 -28 -23 -28 -65 0 -36 4 -49 18 -54 9 -3 25 -13 34 -20 9 -8 22 -12 27 -8 6 3 11 3 12 -2 10 -103 9 -99 38 -83 20 10 21 19 20 115 -1 78 -4 105 -14 105 -7 0 -18 7 -25 15 -16 20 -48 19 -82 -3z m62 -48 c11 -12 11 -18 -2 -31 -19 -18 -38 -10 -38 16 0 33 20 40 40 15z"/>
 <path d="M493 507 c-15 -8 -23 -22 -25 -47 -4 -45 -32 -49 -36 -5 -3 30 -25 55 -49 55 -9 0 -13 -16 -13 -55 0 -54 0 -55 41 -74 l41 -20 39 26 c37 25 39 28 39 79 0 57 -2 58 -37 41z"/>
 </g>
<g id="layer106" fill="#8bb851" stroke="none">
 <path d="M707 693 c-4 -3 10 -16 30 -27 31 -18 38 -28 41 -56 2 -29 -3 -38 -29 -56 -29 -21 -32 -21 -59 -6 -31 18 -42 55 -28 93 7 19 11 21 18 9 5 -8 12 -11 16 -7 13 13 -13 29 -35 22 -17 -5 -21 -14 -21 -52 0 -48 11 -64 58 -83 23 -10 46 -2 85 29 13 10 17 11 17 2 0 -7 6 -11 13 -8 14 4 16 27 2 27 -5 -1 -12 16 -15 36 -4 29 -13 40 -46 60 -22 13 -44 21 -47 17z"/>
 <path d="M717 644 c-14 -14 -7 -22 16 -18 l22 5 -22 -10 c-23 -11 -32 -51 -12 -51 6 0 9 7 5 15 -3 9 0 15 9 15 9 0 12 -6 8 -16 -4 -12 -2 -15 8 -12 15 5 24 68 10 68 -5 0 -16 2 -23 5 -8 3 -17 2 -21 -1z"/>
 <path d="M680 580 c0 -5 5 -10 10 -10 6 0 10 5 10 10 0 6 -4 10 -10 10 -5 0 -10 -4 -10 -10z"/>
 <path d="M602 520 c-12 -10 -27 -20 -33 -22 -6 -2 -12 -20 -14 -41 -4 -38 6 -54 52 -84 22 -15 26 -14 64 12 37 26 40 32 37 69 -2 31 -9 43 -26 52 -13 6 -29 17 -35 23 -14 14 -18 14 -45 -9z"/>
 <path d="M955 516 c-38 -20 -40 -24 -40 -66 0 -35 4 -47 21 -55 12 -6 29 -17 38 -24 13 -11 22 -9 56 10 22 12 40 29 40 37 0 37 -84 59 -93 25 -3 -13 -5 -12 -6 5 -1 17 8 27 34 38 41 17 44 27 13 41 -18 8 -32 5 -63 -11z"/>
 <path d="M768 512 c-24 -14 -28 -23 -28 -65 0 -36 4 -49 18 -54 9 -3 25 -13 34 -20 9 -8 22 -12 27 -8 6 3 11 3 12 -2 10 -103 9 -99 38 -83 20 10 21 19 20 115 -1 78 -4 105 -14 105 -7 0 -18 7 -25 15 -16 20 -48 19 -82 -3z m62 -48 c11 -12 11 -18 -2 -31 -19 -18 -38 -10 -38 16 0 33 20 40 40 15z"/>
 <path d="M493 507 c-15 -8 -23 -22 -25 -47 -4 -45 -32 -49 -36 -5 -3 30 -25 55 -49 55 -9 0 -13 -16 -13 -55 0 -54 0 -55 41 -74 l41 -20 39 26 c37 25 39 28 39 79 0 57 -2 58 -37 41z"/>
 </g>
<g id="layer107" fill="#96c562" stroke="none">
 <path d="M707 693 c-4 -3 10 -16 30 -27 32 -18 39 -28 41 -59 3 -32 -1 -39 -28 -56 -32 -19 -32 -19 -67 1 -29 17 -34 26 -32 52 4 40 19 62 30 44 4 -7 11 -9 15 -5 13 13 -13 29 -35 22 -17 -5 -21 -14 -21 -52 0 -47 11 -64 57 -83 17 -7 31 -4 57 11 37 22 51 64 32 101 -13 25 -69 61 -79 51z"/>
 <path d="M717 644 c-14 -14 -7 -22 15 -16 14 3 19 2 14 -6 -4 -7 -14 -12 -22 -12 -8 0 -14 -9 -14 -20 0 -11 5 -20 11 -20 6 0 9 7 5 15 -3 9 0 15 10 15 9 0 12 -5 8 -11 -4 -7 -1 -10 6 -7 16 5 25 58 11 58 -5 0 -16 2 -23 5 -8 3 -17 2 -21 -1z"/>
 <path d="M680 580 c0 -5 5 -10 10 -10 6 0 10 5 10 10 0 6 -4 10 -10 10 -5 0 -10 -4 -10 -10z"/>
 <path d="M806 571 c-4 -5 -2 -12 3 -15 5 -4 12 -2 15 3 4 5 2 12 -3 15 -5 4 -12 2 -15 -3z"/>
 <path d="M599 517 c-19 -11 -36 -22 -37 -23 -7 -5 -10 -71 -4 -80 4 -6 21 -20 39 -32 l31 -22 41 27 c36 23 41 31 41 63 0 31 -5 40 -39 62 l-39 25 -33 -20z"/>
 <path d="M956 515 c-21 -12 -38 -24 -37 -28 1 -4 1 -25 1 -46 0 -34 4 -42 32 -55 39 -20 49 -20 87 2 38 21 40 45 6 60 -37 17 -63 15 -68 -5 -3 -13 -5 -12 -6 5 -1 17 8 27 34 38 19 8 35 16 35 18 0 2 -10 10 -22 18 -21 14 -27 13 -62 -7z m64 -74 c0 -5 -7 -12 -16 -15 -14 -5 -15 -4 -4 9 14 17 20 19 20 6z"/>
 <path d="M768 512 c-24 -14 -28 -23 -28 -65 0 -36 4 -49 18 -54 9 -3 25 -13 34 -20 9 -8 22 -12 27 -8 6 3 11 3 12 -2 10 -103 9 -99 38 -81 20 12 21 21 20 106 -1 87 -3 95 -28 118 -30 28 -56 30 -93 6z m62 -48 c11 -12 11 -18 -2 -31 -19 -18 -38 -10 -38 16 0 33 20 40 40 15z"/>
 <path d="M493 503 c-15 -10 -23 -26 -23 -44 0 -31 -11 -42 -34 -33 -11 4 -13 14 -10 34 5 22 1 31 -14 39 -35 19 -42 13 -42 -37 0 -50 7 -62 58 -90 19 -10 27 -9 56 10 31 21 35 28 38 76 2 30 1 55 -2 57 -3 1 -15 -4 -27 -12z"/>
 </g>
<g id="layer108" fill="#99bd69" stroke="none">
 <path d="M743 668 c32 -19 37 -27 37 -60 0 -32 -5 -41 -32 -58 -32 -19 -33 -19 -63 0 -21 13 -31 28 -33 50 -4 36 16 69 29 48 4 -7 11 -9 15 -5 13 13 -13 29 -35 22 -17 -5 -21 -14 -21 -54 0 -45 2 -49 39 -69 l39 -22 36 21 c33 19 36 25 36 65 0 39 -4 47 -32 64 -18 11 -37 20 -43 20 -5 0 7 -10 28 -22z"/>
 <path d="M710 632 c0 -6 10 -8 22 -4 14 3 19 2 14 -6 -4 -7 -14 -12 -22 -12 -16 0 -19 -26 -4 -35 5 -3 7 0 4 8 -3 10 4 17 21 21 15 4 25 12 22 19 -4 14 -57 22 -57 9z"/>
 <path d="M680 580 c0 -5 5 -10 10 -10 6 0 10 5 10 10 0 6 -4 10 -10 10 -5 0 -10 -4 -10 -10z"/>
 <path d="M743 583 c4 -3 10 -3 14 0 3 4 0 7 -7 7 -7 0 -10 -3 -7 -7z"/>
 <path d="M805 560 c3 -5 8 -10 11 -10 2 0 4 5 4 10 0 6 -5 10 -11 10 -5 0 -7 -4 -4 -10z"/>
 <path d="M974 525 c-44 -22 -54 -37 -54 -80 0 -39 3 -45 32 -59 39 -20 49 -20 87 2 38 21 40 45 6 60 -33 15 -65 15 -65 1 0 -6 9 -9 20 -6 24 6 27 -8 4 -17 -21 -8 -34 1 -34 25 0 13 12 25 35 35 19 8 35 16 35 18 0 2 -10 10 -22 18 -18 11 -28 12 -44 3z"/>
 <path d="M596 515 c-10 -8 -23 -16 -28 -17 -12 -4 -19 -71 -10 -85 4 -6 22 -20 40 -31 l34 -20 38 25 c34 23 39 30 38 65 0 35 -4 41 -39 58 -45 24 -48 24 -73 5z"/>
 <path d="M768 512 c-24 -14 -28 -23 -28 -65 0 -36 4 -49 18 -54 9 -3 25 -13 34 -20 9 -8 22 -12 27 -8 6 3 11 3 12 -2 0 -4 2 -26 5 -47 5 -51 12 -56 35 -27 16 20 19 38 18 107 -2 90 -3 92 -39 117 -31 21 -48 21 -82 -1z m62 -48 c11 -12 11 -18 -2 -31 -19 -18 -38 -10 -38 16 0 33 20 40 40 15z"/>
 <path d="M370 462 c0 -50 7 -62 58 -90 19 -10 27 -9 57 10 32 21 35 27 35 76 0 56 -1 57 -31 42 -12 -7 -19 -21 -19 -40 0 -32 -11 -43 -34 -34 -10 4 -14 16 -12 35 2 21 -2 33 -15 39 -32 18 -39 11 -39 -38z"/>
 </g>
<g id="layer109" fill="#fbfcfa" stroke="none">
 <path d="M743 668 c32 -19 37 -27 37 -60 0 -32 -5 -41 -32 -58 -32 -19 -33 -19 -63 0 -23 15 -31 28 -33 56 -3 38 16 64 30 41 4 -6 10 -8 14 -4 4 4 2 13 -4 19 -22 22 -47 -4 -50 -53 -3 -43 -1 -46 37 -67 l39 -22 36 21 c33 19 36 25 36 65 0 39 -4 47 -32 64 -18 11 -37 20 -43 20 -5 0 7 -10 28 -22z"/>
 <path d="M710 632 c0 -6 10 -8 22 -4 14 3 19 2 14 -6 -4 -7 -14 -12 -22 -12 -16 0 -19 -26 -4 -35 5 -3 7 0 4 8 -3 10 4 17 21 21 15 4 25 12 22 19 -4 14 -57 22 -57 9z"/>
 <path d="M743 583 c4 -3 10 -3 14 0 3 4 0 7 -7 7 -7 0 -10 -3 -7 -7z"/>
 <path d="M596 515 c-10 -8 -23 -16 -28 -17 -17 -6 -18 -77 -1 -93 33 -34 54 -38 94 -19 37 16 39 19 39 64 0 43 -2 47 -35 63 -43 20 -45 20 -69 2z"/>
 <path d="M768 512 c-24 -14 -28 -23 -28 -62 0 -43 3 -48 35 -63 19 -9 42 -14 51 -10 13 5 15 0 12 -28 -3 -19 -2 -45 2 -59 l6 -24 22 22 c20 20 23 32 21 106 -2 92 -3 94 -39 119 -31 21 -48 21 -82 -1z m62 -48 c11 -12 11 -18 -2 -31 -19 -18 -38 -10 -38 16 0 33 20 40 40 15z"/>
 <path d="M953 510 c-29 -17 -33 -25 -33 -63 0 -38 3 -44 35 -61 29 -16 39 -17 64 -6 49 20 56 35 29 62 -19 19 -23 20 -26 6 -2 -9 -10 -19 -18 -22 -43 -17 -46 37 -4 59 28 15 41 35 21 35 -5 0 -15 2 -23 5 -7 3 -28 -4 -45 -15z"/>
 <path d="M372 458 c3 -50 5 -54 40 -73 37 -20 38 -20 73 -1 33 18 35 22 35 73 0 57 -1 58 -31 43 -12 -7 -19 -21 -19 -40 0 -16 -4 -31 -9 -34 -19 -12 -41 7 -41 33 0 29 -16 51 -38 51 -10 0 -12 -14 -10 -52z"/>
 <path d="M980 450 c0 -5 5 -10 10 -10 6 0 10 5 10 10 0 6 -4 10 -10 10 -5 0 -10 -4 -10 -10z"/>
 </g>

</svg>