<!DOCTYPE svg PUBLIC "-//W3C//DTD SVG 20010904//EN" "http://www.w3.org/TR/2001/REC-SVG-20010904/DTD/svg10.dtd">
<svg version="1.0" xmlns="http://www.w3.org/2000/svg" width="145px" height="100px" viewBox="0 0 1450 1000" preserveAspectRatio="xMidYMid meet">
<g id="layer101" fill="#901c20" stroke="none">
 <path d="M0 500 l0 -500 725 0 725 0 0 500 0 500 -725 0 -725 0 0 -500z"/>
 </g>
<g id="layer102" fill="#ad2323" stroke="none">
 <path d="M4 954 c3 -26 6 -251 6 -500 l0 -454 720 0 720 0 0 500 0 500 -726 0 -727 0 7 -46z"/>
 </g>
<g id="layer103" fill="#d11316" stroke="none">
 <path d="M10 505 l0 -495 720 0 720 0 0 495 0 495 -720 0 -720 0 0 -495z"/>
 </g>
<g id="layer104" fill="#c11e22" stroke="none">
 <path d="M10 505 l0 -495 720 0 720 0 0 495 0 495 -720 0 -720 0 0 -495z m687 78 c-4 -3 -10 -3 -14 0 -3 4 0 7 7 7 7 0 10 -3 7 -7z m110 1 c-3 -3 -12 -4 -19 -1 -8 3 -5 6 6 6 11 1 17 -2 13 -5z m-280 -11 c-4 -3 -10 -3 -14 0 -3 4 0 7 7 7 7 0 10 -3 7 -7z m93 3 c0 -3 -5 -8 -12 -12 -7 -4 -8 -3 -4 4 7 12 16 16 16 8z m107 -13 c-4 -3 -10 -3 -14 0 -3 4 0 7 7 7 7 0 10 -3 7 -7z m-190 -20 c-4 -3 -7 0 -7 7 0 7 3 10 7 7 3 -4 3 -10 0 -14z m133 7 c0 -5 -5 -10 -11 -10 -5 0 -7 5 -4 10 3 6 8 10 11 10 2 0 4 -4 4 -10z m-298 -32 c-8 -8 -9 -4 -5 13 4 13 8 18 11 10 2 -7 -1 -18 -6 -23z m185 -5 c-3 -10 -5 -4 -5 12 0 17 2 24 5 18 2 -7 2 -21 0 -30z m220 5 c-3 -7 -5 -2 -5 12 0 14 2 19 5 13 2 -7 2 -19 0 -25z m230 10 c-3 -8 -6 -5 -6 6 -1 11 2 17 5 13 3 -3 4 -12 1 -19z m-141 -74 c-3 -8 -16 -13 -28 -13 l-23 2 23 4 c19 4 22 11 24 51 1 45 2 46 5 8 3 -21 2 -44 -1 -52z m31 79 c-4 -3 -10 -3 -14 0 -3 4 0 7 7 7 7 0 10 -3 7 -7z m20 -16 c-12 -13 -24 -22 -26 -20 -6 4 30 43 40 43 5 0 -2 -10 -14 -23z m-250 -4 c-4 -3 -7 0 -7 7 0 7 3 10 7 7 3 -4 3 -10 0 -14z m-129 -18 c-5 -25 7 -35 15 -12 2 6 6 -4 8 -24 3 -26 1 -35 -8 -32 -6 3 -9 12 -6 21 5 12 2 14 -11 9 -15 -6 -17 -3 -12 15 3 13 6 29 6 36 0 6 3 12 6 12 4 0 4 -11 2 -25z m82 5 c0 -5 -5 -10 -11 -10 -5 0 -7 5 -4 10 3 6 8 10 11 10 2 0 4 -4 4 -10z m105 0 c3 -5 1 -10 -4 -10 -6 0 -11 5 -11 10 0 6 2 10 4 10 3 0 8 -4 11 -10z m270 0 c-3 -5 -18 -10 -33 -9 l-27 1 25 8 c35 11 42 11 35 0z m-621 -16 c3 -8 2 -12 -4 -9 -6 3 -10 10 -10 16 0 14 7 11 14 -7z m41 -20 c9 -15 12 -23 6 -20 -11 7 -35 46 -28 46 3 0 12 -12 22 -26z m265 1 c11 -16 11 -18 0 -8 -11 10 -17 10 -28 0 -13 -10 -14 -9 -1 10 7 12 14 21 14 20 0 -1 7 -11 15 -22z m317 -2 c-4 -3 -7 0 -7 7 0 7 3 10 7 7 3 -4 3 -10 0 -14z m-227 3 c0 -3 -5 -8 -12 -12 -7 -4 -8 -3 -4 4 7 12 16 16 16 8z m165 -16 c3 -6 -1 -7 -9 -4 -18 7 -21 14 -7 14 6 0 13 -4 16 -10z m-300 -10 c4 -7 -3 -9 -22 -5 -27 6 -27 6 -9 -9 15 -12 16 -16 5 -16 -8 0 -20 9 -27 20 -11 18 -10 20 17 20 17 0 33 -5 36 -10z m61 -5 c-11 -8 -25 -15 -30 -15 -6 1 0 7 14 15 32 19 40 18 16 0z m111 9 c-3 -3 -12 -4 -19 -1 -8 3 -5 6 6 6 11 1 17 -2 13 -5z m-390 -31 c-4 -3 -7 0 -7 7 0 7 3 10 7 7 3 -4 3 -10 0 -14z m295 1 c-12 -8 -19 -20 -16 -26 4 -6 2 -8 -4 -5 -15 10 -42 -3 -42 -19 0 -8 -5 -14 -10 -14 -26 0 56 77 85 79 5 1 -1 -6 -13 -15z m-262 2 c0 -3 -5 -8 -12 -12 -7 -4 -8 -3 -4 4 7 12 16 16 16 8z m27 -38 c-3 -8 -6 -5 -6 6 -1 11 2 17 5 13 3 -3 4 -12 1 -19z m48 -16 c-3 -3 -11 0 -18 7 -9 10 -8 11 6 5 10 -3 15 -9 12 -12z m92 1 c-4 -3 -10 -3 -14 0 -3 4 0 7 7 7 7 0 10 -3 7 -7z m-30 -10 c-4 -3 -10 -3 -14 0 -3 4 0 7 7 7 7 0 10 -3 7 -7z"/>
 </g>
<g id="layer105" fill="#e3191a" stroke="none">
 <path d="M10 695 c0 -298 0 -305 20 -305 26 0 26 -17 0 -25 -21 -7 -28 -25 -10 -25 6 0 10 5 10 10 0 16 32 11 46 -7 8 -11 13 -13 14 -5 0 9 46 12 196 12 l196 0 19 -25 c13 -15 26 -22 36 -18 12 5 14 3 8 -7 -5 -8 -4 -11 3 -6 5 3 12 0 15 -6 3 -7 5 -4 4 8 -1 16 -7 21 -25 20 -16 -1 -30 8 -41 24 -15 24 -15 24 2 11 23 -18 66 -23 86 -10 12 8 9 9 -14 5 l-30 -5 30 14 c17 8 38 12 48 9 9 -3 17 -1 17 4 0 8 46 42 80 60 4 1 6 -9 6 -23 0 -14 -4 -25 -9 -25 -5 0 -6 7 -3 16 4 10 2 14 -6 11 -7 -2 -12 -9 -11 -15 2 -7 -4 -9 -14 -5 -11 4 -14 3 -9 -5 5 -8 2 -10 -8 -6 -10 4 -16 1 -16 -9 0 -8 -3 -17 -7 -20 -5 -2 -2 -2 5 0 8 1 191 3 408 3 l394 0 0 325 0 325 -720 0 -720 0 0 -305z m687 -112 c-4 -3 -10 -3 -14 0 -3 4 0 7 7 7 7 0 10 -3 7 -7z m110 1 c-3 -3 -12 -4 -19 -1 -8 3 -5 6 6 6 11 1 17 -2 13 -5z m-280 -11 c-4 -3 -10 -3 -14 0 -3 4 0 7 7 7 7 0 10 -3 7 -7z m93 3 c0 -3 -5 -8 -12 -12 -7 -4 -8 -3 -4 4 7 12 16 16 16 8z m107 -13 c-4 -3 -10 -3 -14 0 -3 4 0 7 7 7 7 0 10 -3 7 -7z m-190 -20 c-4 -3 -7 0 -7 7 0 7 3 10 7 7 3 -4 3 -10 0 -14z m133 7 c0 -5 -5 -10 -11 -10 -5 0 -7 5 -4 10 3 6 8 10 11 10 2 0 4 -4 4 -10z m-298 -32 c-8 -8 -9 -4 -5 13 4 13 8 18 11 10 2 -7 -1 -18 -6 -23z m185 -5 c-3 -10 -5 -4 -5 12 0 17 2 24 5 18 2 -7 2 -21 0 -30z m220 -10 c-3 -10 -5 -2 -5 17 0 19 2 27 5 18 2 -10 2 -26 0 -35z m230 25 c-3 -8 -6 -5 -6 6 -1 11 2 17 5 13 3 -3 4 -12 1 -19z m-141 -74 c-3 -8 -16 -13 -28 -13 l-23 2 23 4 c19 4 22 11 24 51 1 45 2 46 5 8 3 -21 2 -44 -1 -52z m31 79 c-4 -3 -10 -3 -14 0 -3 4 0 7 7 7 7 0 10 -3 7 -7z m20 -16 c-12 -13 -24 -22 -26 -20 -6 4 30 43 40 43 5 0 -2 -10 -14 -23z m-250 -4 c-4 -3 -7 0 -7 7 0 7 3 10 7 7 3 -4 3 -10 0 -14z m-129 -18 c-5 -26 6 -35 15 -12 3 6 6 -4 7 -23 1 -19 4 -29 7 -22 6 15 59 16 69 1 4 -8 0 -9 -15 -4 -22 7 -30 -10 -8 -18 7 -3 5 -6 -5 -6 -10 -1 -18 4 -18 9 0 6 -6 10 -12 9 -29 -3 -37 2 -31 18 5 13 2 15 -11 10 -15 -6 -17 -3 -12 15 3 13 6 29 6 36 0 6 3 12 6 12 4 0 4 -11 2 -25z m82 5 c0 -5 -5 -10 -11 -10 -5 0 -7 5 -4 10 3 6 8 10 11 10 2 0 4 -4 4 -10z m105 0 c3 -5 1 -10 -4 -10 -6 0 -11 5 -11 10 0 6 2 10 4 10 3 0 8 -4 11 -10z m273 4 c-4 -3 -3 -18 2 -33 7 -26 6 -27 -29 -29 -20 -1 -43 2 -50 7 -10 6 -1 8 27 4 38 -5 42 -4 42 16 0 16 -6 21 -27 22 l-28 1 25 8 c32 10 45 12 38 4z m19 -16 c-3 -8 -6 -5 -6 6 -1 11 2 17 5 13 3 -3 4 -12 1 -19z m-637 -13 c14 -19 14 -19 -2 -6 -10 7 -18 18 -18 24 0 6 1 8 3 6 1 -2 9 -13 17 -24z m44 -66 c1 -22 0 -42 -4 -44 -3 -2 -6 15 -6 38 -1 23 -6 53 -13 67 l-12 25 17 -22 c9 -13 17 -41 18 -64z m269 24 c-9 -7 -22 -13 -27 -13 -6 1 -1 6 11 13 22 12 22 13 4 24 -14 9 -21 9 -31 0 -10 -10 -10 -8 0 9 l12 20 24 -20 c22 -19 22 -22 7 -33z m77 33 c0 -3 -5 -8 -12 -12 -7 -4 -8 -3 -4 4 7 12 16 16 16 8z m-383 -23 c-4 -3 -10 -3 -14 0 -3 4 0 7 7 7 7 0 10 -3 7 -7z m420 1 c-3 -3 -12 -4 -19 -1 -8 3 -5 6 6 6 11 1 17 -2 13 -5z m-328 -69 c0 -14 -2 -16 -6 -5 -9 23 -30 40 -38 32 -5 -4 -5 -1 -1 5 10 19 46 -7 45 -32z m955 0 c4 -11 -2 -15 -22 -15 -26 1 -26 1 -8 15 24 18 23 18 30 0z m-894 -16 c0 -4 -6 -11 -12 -15 -7 -4 -10 -4 -6 1 4 4 0 14 -10 21 -15 12 -15 12 6 7 12 -3 22 -9 22 -14z m177 4 c-4 -3 -10 -3 -14 0 -3 4 0 7 7 7 7 0 10 -3 7 -7z m60 1 c-3 -3 -12 -4 -19 -1 -8 3 -5 6 6 6 11 1 17 -2 13 -5z m130 -1 c-4 -3 -10 -3 -14 0 -3 4 0 7 7 7 7 0 10 -3 7 -7z"/>
 <path d="M635 320 c3 -5 8 -10 11 -10 3 0 2 5 -1 10 -3 6 -8 10 -11 10 -3 0 -2 -4 1 -10z"/>
 </g>
<g id="layer106" fill="#d32325" stroke="none">
 <path d="M10 695 c0 -298 0 -305 20 -305 26 0 26 -17 0 -25 -21 -7 -28 -25 -10 -25 6 0 10 5 10 10 0 16 32 11 46 -7 8 -11 13 -13 14 -5 0 9 46 12 196 12 l196 0 19 -25 c13 -15 26 -22 36 -18 12 5 14 3 8 -7 -5 -8 -4 -11 3 -6 5 3 12 0 15 -6 3 -7 5 -4 4 8 -1 16 -7 21 -25 20 -16 -1 -30 8 -41 24 -15 24 -15 24 2 11 23 -18 66 -23 86 -10 12 8 9 9 -14 5 l-30 -5 30 14 c17 8 38 12 48 9 9 -3 17 -1 17 4 0 8 46 42 80 60 4 1 6 -9 6 -23 0 -14 -4 -25 -9 -25 -5 0 -6 7 -3 16 4 10 2 14 -6 11 -7 -2 -12 -9 -11 -15 2 -7 -4 -9 -14 -5 -11 4 -14 3 -9 -5 5 -8 2 -10 -8 -6 -10 4 -16 1 -16 -9 0 -8 -3 -17 -7 -20 -5 -2 -2 -2 5 0 8 1 191 3 408 3 l394 0 0 325 0 325 -720 0 -720 0 0 -305z m468 -112 c-16 -2 -40 -2 -55 0 -16 2 -3 4 27 4 30 0 43 -2 28 -4z m119 1 c-3 -3 -12 -4 -19 -1 -8 3 -5 6 6 6 11 1 17 -2 13 -5z m70 -1 c-4 -3 -10 -3 -14 0 -3 4 0 7 7 7 7 0 10 -3 7 -7z m40 1 c-3 -3 -12 -4 -19 -1 -8 3 -5 6 6 6 11 1 17 -2 13 -5z m60 0 c-3 -3 -12 -4 -19 -1 -8 3 -5 6 6 6 11 1 17 -2 13 -5z m40 0 c-3 -3 -12 -4 -19 -1 -8 3 -5 6 6 6 11 1 17 -2 13 -5z m50 0 c-3 -3 -12 -4 -19 -1 -8 3 -5 6 6 6 11 1 17 -2 13 -5z m40 0 c-3 -3 -12 -4 -19 -1 -8 3 -5 6 6 6 11 1 17 -2 13 -5z m-530 -21 c-4 -3 -7 0 -7 7 0 7 3 10 7 7 3 -4 3 -10 0 -14z m168 -8 c0 -10 -6 -19 -13 -21 -7 -1 -8 0 -2 3 5 2 10 11 10 18 0 7 -5 16 -10 18 -6 3 -5 4 2 3 7 -2 13 -11 13 -21z m85 21 c0 -3 -5 -8 -12 -12 -7 -4 -8 -3 -4 4 7 12 16 16 16 8z m375 -6 c3 -5 4 -10 1 -10 -3 0 -8 5 -11 10 -3 6 -4 10 -1 10 3 0 8 -4 11 -10z m-427 -132 c2 15 58 16 68 1 4 -8 0 -9 -15 -4 -22 7 -30 -10 -8 -18 7 -3 5 -6 -5 -6 -10 -1 -18 4 -18 9 0 6 -6 10 -12 9 -29 -3 -37 2 -31 18 5 13 2 15 -11 10 -16 -6 -17 -3 -12 19 5 18 3 30 -6 35 -10 7 -8 9 6 9 14 0 17 -6 14 -25 -3 -14 -1 -25 3 -25 5 0 10 24 11 53 1 47 2 44 8 -23 4 -41 7 -69 8 -62z m159 125 c-4 -3 -10 -3 -14 0 -3 4 0 7 7 7 7 0 10 -3 7 -7z m-58 -30 c0 -25 -1 -25 -8 -8 -5 11 -7 23 -4 28 8 14 13 7 12 -20z m108 -25 c-2 -13 -4 -5 -4 17 -1 22 1 32 4 23 2 -10 2 -28 0 -40z m-394 22 c3 -11 1 -18 -3 -15 -16 10 -19 -12 -5 -31 17 -23 19 -44 4 -44 -5 0 -7 4 -4 10 3 5 0 19 -8 31 -12 16 -12 25 -3 44 13 30 12 30 19 5z m619 -16 c-5 -10 -6 -29 -2 -44 7 -25 5 -26 -29 -28 -20 -1 -43 2 -50 7 -10 6 -1 8 27 4 38 -5 42 -4 42 16 0 16 -6 21 -27 22 l-28 1 25 7 c14 4 29 17 35 29 5 12 11 18 13 13 2 -6 -1 -18 -6 -27z m-136 -60 c-3 -8 -16 -13 -28 -13 l-23 2 23 4 c19 4 22 11 24 51 1 45 2 46 5 8 3 -21 2 -44 -1 -52z m31 79 c-4 -3 -10 -3 -14 0 -3 4 0 7 7 7 7 0 10 -3 7 -7z m20 -16 c-12 -13 -23 -22 -25 -21 -8 5 24 44 35 44 7 0 2 -10 -10 -23z m-297 -17 c0 -5 -5 -10 -11 -10 -5 0 -7 5 -4 10 3 6 8 10 11 10 2 0 4 -4 4 -10z m110 0 c0 -5 -4 -10 -10 -10 -5 0 -10 5 -10 10 0 6 5 10 10 10 6 0 10 -4 10 -10z m287 -12 c-3 -8 -6 -5 -6 6 -1 11 2 17 5 13 3 -3 4 -12 1 -19z m-595 -60 c-3 -13 0 -19 9 -17 25 4 49 -13 48 -35 0 -14 -2 -16 -6 -6 -9 22 -27 37 -40 33 -7 -3 -10 -10 -7 -18 3 -7 1 -15 -3 -18 -5 -3 -9 13 -9 36 -1 23 -6 53 -13 67 l-12 25 19 -24 c11 -13 17 -33 14 -43z m271 5 c-9 -7 -22 -13 -27 -13 -6 1 -1 6 11 13 22 12 22 13 4 24 -14 9 -21 9 -31 0 -10 -10 -10 -8 0 9 l12 20 24 -20 c22 -19 22 -22 7 -33z m77 33 c0 -3 -5 -8 -12 -12 -7 -4 -8 -3 -4 4 7 12 16 16 16 8z m37 -22 c-3 -3 -12 -4 -19 -1 -8 3 -5 6 6 6 11 1 17 -2 13 -5z m627 -69 c4 -11 -2 -15 -22 -15 -26 1 -26 1 -8 15 24 18 23 18 30 0z m-894 -16 c0 -4 -6 -11 -12 -15 -7 -4 -10 -4 -6 1 4 4 0 14 -10 21 -15 12 -15 12 6 7 12 -3 22 -9 22 -14z m177 4 c-4 -3 -10 -3 -14 0 -3 4 0 7 7 7 7 0 10 -3 7 -7z m60 1 c-3 -3 -12 -4 -19 -1 -8 3 -5 6 6 6 11 1 17 -2 13 -5z m130 -1 c-4 -3 -10 -3 -14 0 -3 4 0 7 7 7 7 0 10 -3 7 -7z"/>
 <path d="M635 320 c3 -5 8 -10 11 -10 3 0 2 5 -1 10 -3 6 -8 10 -11 10 -3 0 -2 -4 1 -10z"/>
 </g>
<g id="layer107" fill="#e82328" stroke="none">
 <path d="M10 821 l0 -179 720 1 720 1 0 178 0 178 -720 0 -720 0 0 -179z"/>
 <path d="M428 623 c12 -2 32 -2 45 0 12 2 2 4 -23 4 -25 0 -35 -2 -22 -4z"/>
 <path d="M598 613 c6 -2 18 -2 25 0 6 3 1 5 -13 5 -14 0 -19 -2 -12 -5z"/>
 <path d="M336 588 c3 -5 10 -6 15 -3 13 9 11 12 -6 12 -8 0 -12 -4 -9 -9z"/>
 <path d="M384 593 c3 -6 2 -14 -3 -18 -7 -4 -7 -15 -1 -31 12 -31 12 -35 1 -31 -5 1 -9 -2 -10 -8 -1 -5 5 -10 12 -10 16 0 30 -22 22 -35 -4 -6 -1 -9 7 -8 8 2 12 -5 10 -19 -2 -13 2 -23 7 -23 6 0 11 4 11 10 0 5 11 0 25 -12 13 -11 22 -25 19 -29 -2 -4 0 -10 6 -14 5 -3 10 -2 10 4 0 7 8 7 23 2 12 -5 21 -14 19 -20 -1 -7 9 -6 28 4 17 9 40 13 50 10 11 -4 20 -2 20 4 0 6 12 17 28 25 15 8 44 30 65 49 32 30 37 39 37 80 0 50 -12 66 -36 46 -8 -6 -17 -9 -20 -6 -9 9 6 28 17 22 5 -4 9 -1 9 4 0 6 -7 11 -15 11 -8 0 -15 -4 -15 -9 0 -14 -34 -19 -60 -8 -36 15 -51 17 -44 6 3 -5 10 -7 15 -4 5 4 9 2 9 -3 0 -15 -28 -23 -32 -10 -3 7 -12 9 -22 5 -14 -6 -16 -17 -14 -64 3 -57 3 -58 35 -61 21 -2 38 3 51 16 19 19 20 19 36 0 9 -10 22 -16 28 -12 7 4 8 3 4 -5 -4 -6 -21 -18 -38 -27 -25 -13 -32 -14 -40 -2 -7 10 -11 10 -15 1 -6 -15 -33 -17 -33 -3 0 5 -10 9 -22 7 -18 -1 -22 2 -20 17 3 13 -1 17 -11 13 -9 -3 -18 1 -21 9 -3 8 -1 14 4 14 16 0 11 27 -5 34 -8 3 -15 10 -15 16 0 5 7 10 15 10 8 0 15 7 15 15 0 8 -7 15 -15 15 -8 0 -13 6 -11 13 1 6 1 9 -1 5 -7 -13 -98 -9 -112 5 -10 8 -12 8 -7 0z m286 -58 c0 -22 -2 -24 -14 -13 -10 9 -11 17 -4 26 15 17 18 15 18 -13z m56 -42 c-10 -10 -19 5 -10 18 6 11 8 11 12 0 2 -7 1 -15 -2 -18z m-106 7 c0 -5 -4 -10 -10 -10 -5 0 -10 5 -10 10 0 6 5 10 10 10 6 0 10 -4 10 -10z"/>
 <path d="M526 589 c6 -10 44 -7 44 3 0 4 -11 7 -24 6 -14 -1 -23 -6 -20 -9z"/>
 <path d="M670 590 c0 -7 3 -10 7 -7 3 4 3 10 0 14 -4 3 -7 0 -7 -7z"/>
 <path d="M824 588 c-4 -7 -3 -8 4 -4 7 4 12 9 12 12 0 8 -9 4 -16 -8z"/>
 <path d="M964 593 c4 -8 -13 -11 -59 -12 -36 0 -70 -3 -75 -6 -4 -3 -19 -1 -32 4 -23 9 -23 8 -21 -58 l1 -66 41 -2 41 -1 0 44 0 44 53 -1 c28 -1 42 -4 29 -6 -12 -2 -27 -14 -33 -26 -10 -17 -8 -24 11 -39 31 -25 70 -24 70 2 0 15 -7 20 -27 21 -21 1 -23 2 -8 6 49 12 57 42 24 83 -11 14 -18 20 -15 13z m-57 -40 c-4 -3 -7 0 -7 7 0 7 3 10 7 7 3 -4 3 -10 0 -14z"/>
 <path d="M1000 590 c-12 -7 -10 -9 7 -7 12 0 19 5 17 9 -6 10 -6 10 -24 -2z"/>
 <path d="M1040 560 c0 -7 3 -10 7 -7 3 4 3 10 0 14 -4 3 -7 0 -7 -7z"/>
 <path d="M533 523 c4 -3 10 -3 14 0 3 4 0 7 -7 7 -7 0 -10 -3 -7 -7z"/>
 <path d="M513 353 c4 -3 10 -3 14 0 3 4 0 7 -7 7 -7 0 -10 -3 -7 -7z"/>
 </g>
<g id="layer108" fill="#d2453e" stroke="none">
 <path d="M377 574 c-3 -3 -2 -17 4 -31 11 -30 11 -34 0 -30 -5 1 -9 -2 -10 -8 -1 -5 5 -10 12 -10 16 0 30 -22 22 -35 -4 -6 -1 -9 7 -8 8 2 12 -5 10 -19 -2 -13 2 -23 7 -23 6 0 11 5 11 10 0 13 44 -27 46 -41 3 -22 5 -23 12 -12 6 10 14 9 36 -2 20 -11 33 -12 47 -4 11 5 29 7 39 4 11 -4 20 -2 20 3 0 5 20 22 45 38 25 15 45 32 45 36 0 12 -5 10 -45 -14 -31 -18 -38 -19 -47 -7 -7 11 -11 11 -15 2 -6 -15 -33 -17 -33 -3 0 5 -10 9 -22 7 -18 -1 -22 2 -20 17 3 13 -1 17 -11 13 -9 -3 -18 1 -21 9 -3 8 -1 14 4 14 16 0 11 27 -5 34 -8 3 -15 10 -15 16 0 5 7 10 15 10 24 0 18 27 -7 34 -30 8 -123 8 -131 0z"/>
 <path d="M564 566 c-3 -7 -4 -35 -2 -62 3 -47 4 -49 35 -52 22 -2 38 3 52 17 18 18 21 19 29 4 10 -18 48 -23 75 -11 13 7 17 21 17 58 0 53 -12 69 -36 49 -10 -9 -18 -9 -22 -2 -9 13 -70 15 -94 2 -12 -6 -18 -6 -18 1 0 15 -30 12 -36 -4z m105 -38 c-1 -18 -3 -25 -6 -15 -2 9 -9 17 -15 17 -6 0 -6 6 2 15 18 21 20 19 19 -17z m61 -23 c0 -8 -4 -15 -10 -15 -5 0 -10 7 -10 15 0 8 5 15 10 15 6 0 10 -7 10 -15z m-110 -5 c0 -5 -4 -10 -10 -10 -5 0 -10 5 -10 10 0 6 5 10 10 10 6 0 10 -4 10 -10z"/>
 <path d="M780 523 c0 -29 -1 -56 -2 -60 -2 -5 16 -9 40 -10 l42 -1 0 44 0 44 53 -1 c28 -1 42 -4 29 -6 -12 -2 -27 -14 -33 -26 -10 -17 -8 -24 11 -39 28 -23 63 -20 68 5 3 13 -4 17 -25 18 -21 1 -23 3 -8 6 45 11 57 39 29 68 -20 19 -66 16 -76 -5 -5 -12 -7 -12 -7 2 -1 15 -10 17 -61 16 l-60 -2 0 -53z"/>
 </g>
<g id="layer109" fill="#d73b44" stroke="none">
 <path d="M383 545 c3 -19 2 -34 -3 -32 -4 1 -8 -2 -9 -8 -1 -5 5 -10 12 -10 16 0 30 -22 22 -35 -4 -6 -1 -9 7 -8 9 2 12 -5 10 -22 -3 -19 -1 -22 8 -13 9 8 18 6 36 -9 13 -12 21 -24 19 -28 -2 -4 10 -7 26 -7 17 0 35 -6 40 -14 6 -10 11 -11 17 -3 4 6 22 10 40 9 17 -1 32 1 32 5 0 4 20 20 45 35 52 34 51 54 -2 22 -25 -14 -38 -17 -41 -9 -2 8 -8 8 -23 -1 -15 -9 -21 -9 -27 0 -4 6 -16 11 -27 10 -15 -2 -19 3 -17 17 3 13 -1 17 -11 13 -9 -3 -18 1 -21 9 -3 8 -1 14 4 14 16 0 11 27 -5 34 -8 3 -15 10 -15 16 0 5 7 10 15 10 8 0 15 7 15 16 0 10 -6 14 -15 10 -8 -3 -15 -1 -15 4 0 6 -28 10 -61 10 l-62 0 6 -35z"/>
 <path d="M566 572 c-2 -4 -3 -32 -2 -62 3 -53 4 -55 34 -58 21 -2 37 3 51 17 18 18 21 19 29 4 10 -18 48 -23 75 -11 13 7 17 21 17 58 0 53 -12 69 -36 49 -9 -8 -18 -9 -22 -3 -10 13 -71 15 -93 3 -13 -6 -19 -6 -19 1 0 12 -27 14 -34 2z m103 -44 c-1 -18 -3 -25 -6 -15 -2 9 -9 17 -15 17 -6 0 -6 6 2 15 18 21 20 19 19 -17z m61 -23 c0 -8 -4 -15 -10 -15 -5 0 -10 7 -10 15 0 8 5 15 10 15 6 0 10 -7 10 -15z m-110 -5 c0 -5 -4 -10 -10 -10 -5 0 -10 5 -10 10 0 6 5 10 10 10 6 0 10 -4 10 -10z"/>
 <path d="M780 523 c0 -29 -1 -56 -2 -60 -2 -5 16 -9 40 -10 l42 -1 0 44 0 44 53 -1 c28 -1 43 -3 32 -6 -20 -5 -45 -30 -45 -45 0 -16 46 -37 68 -31 32 8 28 33 -5 34 -21 1 -23 2 -8 6 45 11 57 39 29 68 -20 19 -66 16 -76 -5 -5 -12 -7 -12 -7 2 -1 15 -10 17 -61 16 l-60 -2 0 -53z"/>
 </g>
<g id="layer110" fill="#e53644" stroke="none">
 <path d="M436 572 l-58 -3 6 -30 c3 -19 2 -28 -4 -24 -6 3 -10 -1 -10 -10 0 -9 6 -15 13 -12 16 5 47 -42 39 -61 -4 -11 -1 -14 10 -9 16 5 63 -34 53 -45 -3 -2 9 -5 26 -5 17 0 35 -6 40 -14 8 -12 10 -12 18 0 6 9 19 12 40 8 17 -4 31 -3 31 2 0 5 18 20 41 35 25 17 39 33 35 41 -3 9 4 15 22 17 25 3 27 7 30 56 3 47 1 52 -17 52 -12 0 -21 -4 -21 -10 0 -5 -4 -10 -10 -10 -5 0 -10 6 -10 14 0 16 -93 12 -98 -4 -2 -6 -10 -4 -16 6 -15 20 -36 11 -31 -14 2 -9 4 -33 4 -53 1 -33 4 -37 33 -41 21 -4 37 1 49 13 16 16 18 16 39 -6 l22 -23 -23 -13 c-29 -15 -99 -22 -99 -9 0 5 -10 9 -22 7 -18 -1 -22 2 -20 17 3 13 -1 17 -11 13 -17 -6 -32 19 -17 28 16 10 11 28 -5 21 -10 -4 -15 1 -15 14 0 11 7 20 15 20 8 0 15 7 15 16 0 13 -3 14 -14 5 -11 -9 -15 -9 -18 1 -2 9 -20 12 -62 10z m233 -44 c-1 -18 -3 -25 -6 -15 -2 9 -9 17 -15 17 -6 0 -6 6 2 15 18 21 20 19 19 -17z m61 -23 c0 -8 -4 -15 -10 -15 -5 0 -10 7 -10 15 0 8 5 15 10 15 6 0 10 -7 10 -15z m-100 -5 c0 -5 -7 -10 -15 -10 -8 0 -15 5 -15 10 0 6 7 10 15 10 8 0 15 -4 15 -10z"/>
 <path d="M787 573 c-4 -3 -7 -30 -7 -60 0 -40 4 -53 15 -53 8 0 15 5 15 11 0 6 7 3 16 -5 22 -23 34 -11 34 35 l0 39 53 -1 c36 -1 45 -3 28 -8 -28 -8 -46 -45 -28 -59 25 -20 77 -18 77 3 0 9 -10 16 -27 16 -24 2 -25 2 -5 6 31 6 45 35 27 59 -17 24 -75 27 -75 5 -1 -14 -1 -14 -10 0 -6 10 -19 14 -44 11 -33 -4 -35 -6 -39 -46 l-4 -41 -1 48 c-2 44 -9 56 -25 40z"/>
 </g>
<g id="layer111" fill="#e36065" stroke="none">
 <path d="M384 540 c3 -17 1 -30 -4 -30 -6 0 -10 -5 -10 -11 0 -6 6 -9 13 -6 16 5 47 -42 39 -61 -4 -11 -1 -14 10 -9 16 5 63 -34 53 -45 -3 -2 9 -5 26 -5 17 0 35 -6 40 -14 8 -12 10 -12 18 0 6 9 19 12 40 8 17 -4 31 -3 31 2 0 5 18 20 40 35 22 14 40 31 40 36 0 6 -11 3 -25 -6 -29 -19 -105 -29 -105 -14 0 5 -10 9 -22 7 -18 -1 -22 2 -20 17 3 13 -1 17 -11 13 -17 -6 -32 19 -17 28 16 10 11 28 -5 21 -10 -3 -15 1 -15 13 0 10 7 21 15 25 8 3 15 11 15 17 0 8 -4 8 -15 -1 -10 -9 -15 -9 -15 -1 0 7 -23 11 -61 11 l-61 0 6 -30z"/>
 <path d="M570 514 l0 -55 43 3 c38 3 42 6 45 32 2 16 -1 32 -8 36 -8 5 -6 11 5 20 13 11 15 7 15 -28 0 -48 17 -64 62 -60 32 3 33 4 36 56 3 46 1 52 -17 52 -10 0 -22 -6 -25 -12 -5 -10 -7 -10 -12 0 -7 16 -86 16 -102 0 -9 -9 -12 -9 -12 0 0 7 -7 12 -15 12 -12 0 -15 -13 -15 -56z m160 -9 c0 -8 -4 -15 -10 -15 -5 0 -10 7 -10 15 0 8 5 15 10 15 6 0 10 -7 10 -15z m-100 -5 c0 -5 -7 -10 -15 -10 -8 0 -15 5 -15 10 0 6 7 10 15 10 8 0 15 -4 15 -10z"/>
 <path d="M780 515 c0 -42 3 -55 15 -55 12 0 15 13 15 55 0 42 -3 55 -15 55 -12 0 -15 -13 -15 -55z"/>
 <path d="M820 515 c0 -48 2 -55 20 -55 17 0 20 7 20 40 0 33 3 40 20 40 11 0 20 7 20 15 0 11 -11 15 -40 15 l-40 0 0 -55z"/>
 <path d="M910 556 c0 -11 10 -16 28 -17 l27 -1 -25 -7 c-19 -5 -25 -13 -25 -36 0 -27 3 -30 38 -33 28 -2 37 0 37 12 0 11 -10 16 -27 17 l-28 1 25 7 c19 5 25 13 25 36 0 27 -3 30 -37 33 -29 2 -38 0 -38 -12z"/>
 </g>
<g id="layer112" fill="#e87374" stroke="none">
 <path d="M380 553 c0 -10 13 -41 29 -70 19 -35 25 -54 17 -57 -6 -3 -4 -4 4 -3 21 3 75 -40 58 -45 -7 -3 2 -5 20 -5 19 0 38 -6 43 -14 7 -12 9 -12 9 0 0 10 10 12 40 8 30 -4 40 -2 40 9 0 8 3 14 8 14 4 0 22 9 41 21 37 22 37 38 0 18 -29 -15 -99 -22 -99 -9 0 5 -10 9 -22 7 -18 -1 -22 2 -20 17 3 13 -1 17 -11 13 -9 -3 -18 1 -22 11 -3 9 -1 18 4 20 6 2 11 8 11 14 0 6 -7 8 -15 4 -12 -4 -15 3 -15 29 l0 35 -60 0 c-51 0 -60 -3 -60 -17z"/>
 <path d="M517 563 c-4 -3 -7 -11 -7 -17 0 -6 5 -5 12 2 6 6 9 14 7 17 -3 3 -9 2 -12 -2z"/>
 <path d="M570 514 l0 -55 43 3 c35 3 43 7 45 26 2 13 -2 30 -10 39 -10 13 -10 17 0 20 6 3 12 9 12 14 0 13 -34 11 -48 -3 -9 -9 -12 -9 -12 0 0 7 -7 12 -15 12 -12 0 -15 -13 -15 -56z m60 -14 c0 -5 -7 -10 -15 -10 -8 0 -15 5 -15 10 0 6 7 10 15 10 8 0 15 -4 15 -10z"/>
 <path d="M678 548 c-2 -13 -1 -36 2 -53 4 -26 10 -30 41 -33 40 -3 49 10 49 76 0 34 -16 42 -39 20 -11 -10 -14 -10 -18 0 -8 20 -30 14 -35 -10z m52 -43 c0 -8 -4 -15 -10 -15 -5 0 -10 7 -10 15 0 8 5 15 10 15 6 0 10 -7 10 -15z"/>
 <path d="M780 515 c0 -42 3 -55 15 -55 12 0 15 13 15 55 0 42 -3 55 -15 55 -12 0 -15 -13 -15 -55z"/>
 <path d="M820 515 c0 -48 2 -55 20 -55 17 0 20 7 20 40 0 33 3 40 20 40 11 0 20 7 20 15 0 11 -11 15 -40 15 l-40 0 0 -55z"/>
 <path d="M910 556 c0 -11 10 -16 28 -17 l27 -1 -25 -7 c-19 -5 -25 -13 -25 -36 0 -27 3 -30 38 -33 28 -2 37 0 37 12 0 11 -10 16 -27 17 l-28 1 25 7 c19 5 25 13 25 36 0 27 -3 30 -37 33 -29 2 -38 0 -38 -12z"/>
 <path d="M370 500 c0 -5 5 -10 10 -10 6 0 10 5 10 10 0 6 -4 10 -10 10 -5 0 -10 -4 -10 -10z"/>
 </g>
<g id="layer113" fill="#eeb0b0" stroke="none">
 <path d="M386 543 c4 -16 17 -47 29 -70 16 -29 19 -44 12 -47 -7 -3 -5 -5 3 -4 23 3 74 -34 59 -43 -7 -4 22 -6 63 -6 42 1 74 -1 71 -5 -2 -5 1 -8 6 -8 6 0 11 6 11 13 0 6 19 22 41 35 22 13 38 26 36 29 -3 2 -17 -3 -31 -12 -14 -10 -33 -15 -41 -11 -9 3 -13 2 -10 -4 11 -18 -49 -11 -79 9 -39 26 -55 57 -56 109 l0 42 -60 0 -60 0 6 -27z"/>
 <path d="M570 514 l0 -55 43 3 c35 3 43 7 45 26 2 13 -2 30 -8 38 -10 11 -10 17 0 29 10 12 9 15 -7 15 -10 0 -24 -5 -31 -12 -9 -9 -12 -9 -12 0 0 7 -7 12 -15 12 -12 0 -15 -13 -15 -56z m60 -14 c0 -5 -7 -10 -15 -10 -8 0 -15 5 -15 10 0 6 7 10 15 10 8 0 15 -4 15 -10z"/>
 <path d="M682 518 c3 -50 4 -53 33 -56 37 -5 55 19 55 70 0 27 -4 38 -15 38 -8 0 -15 -4 -15 -10 0 -5 -7 -10 -15 -10 -8 0 -15 5 -15 10 0 6 -7 10 -16 10 -12 0 -14 -10 -12 -52z m58 -13 c0 -8 -7 -15 -15 -15 -8 0 -15 7 -15 15 0 8 7 15 15 15 8 0 15 -7 15 -15z"/>
 <path d="M780 515 c0 -42 3 -55 15 -55 12 0 15 13 15 55 0 42 -3 55 -15 55 -12 0 -15 -13 -15 -55z"/>
 <path d="M830 515 c0 -42 3 -55 15 -55 11 0 15 11 15 40 0 33 3 40 20 40 11 0 20 7 20 15 0 10 -11 15 -35 15 l-35 0 0 -55z"/>
 <path d="M910 556 c0 -11 10 -16 28 -17 l27 -1 -25 -7 c-19 -5 -25 -13 -25 -36 0 -27 3 -30 38 -33 28 -2 37 0 37 12 0 11 -10 16 -27 17 l-28 1 25 7 c19 5 25 13 25 36 0 27 -3 30 -37 33 -29 2 -38 0 -38 -12z"/>
 <path d="M510 549 c0 -5 5 -7 10 -4 6 3 10 8 10 11 0 2 -4 4 -10 4 -5 0 -10 -5 -10 -11z"/>
 <path d="M370 500 c0 -5 5 -10 10 -10 6 0 10 5 10 10 0 6 -4 10 -10 10 -5 0 -10 -4 -10 -10z"/>
 <path d="M513 493 c4 -3 10 -3 14 0 3 4 0 7 -7 7 -7 0 -10 -3 -7 -7z"/>
 <path d="M573 423 c4 -3 10 -3 14 0 3 4 0 7 -7 7 -7 0 -10 -3 -7 -7z"/>
 </g>
<g id="layer114" fill="#f1c5ba" stroke="none">
 <path d="M384 554 c3 -9 6 -21 6 -28 0 -7 12 -30 26 -51 20 -30 23 -40 12 -47 -10 -7 -10 -8 2 -6 8 1 34 -10 57 -25 25 -16 57 -27 77 -27 37 0 119 31 131 50 4 7 -6 5 -23 -4 -41 -21 -81 -20 -116 3 -39 26 -55 57 -56 109 l0 42 -61 0 c-52 0 -60 -2 -55 -16z"/>
 <path d="M570 514 l0 -55 43 3 c35 3 43 7 45 26 2 13 -2 30 -8 38 -10 11 -10 17 0 29 10 12 9 15 -7 15 -10 0 -24 -5 -31 -12 -9 -9 -12 -9 -12 0 0 7 -7 12 -15 12 -12 0 -15 -13 -15 -56z m58 -15 c-2 -6 -8 -10 -13 -10 -5 0 -11 4 -13 10 -2 6 4 11 13 11 9 0 15 -5 13 -11z"/>
 <path d="M682 518 c3 -50 4 -53 33 -56 34 -4 55 18 55 57 0 32 -19 62 -27 44 -6 -15 -33 -17 -33 -3 0 6 -7 10 -16 10 -12 0 -14 -10 -12 -52z m56 -15 c-5 -25 -28 -28 -28 -4 0 12 6 21 16 21 9 0 14 -7 12 -17z"/>
 <path d="M780 515 c0 -42 3 -55 15 -55 12 0 15 13 15 55 0 42 -3 55 -15 55 -12 0 -15 -13 -15 -55z"/>
 <path d="M830 515 c0 -43 3 -55 16 -55 10 0 15 8 14 23 -4 45 0 57 20 57 11 0 20 7 20 15 0 10 -11 15 -35 15 l-35 0 0 -55z"/>
 <path d="M910 556 c0 -11 10 -16 28 -17 l27 -1 -25 -7 c-37 -10 -41 -58 -6 -67 14 -3 33 -4 41 0 25 9 17 26 -12 27 l-28 1 25 7 c19 5 25 13 25 36 0 27 -3 30 -37 33 -29 2 -38 0 -38 -12z"/>
 <path d="M510 549 c0 -5 5 -7 10 -4 6 3 10 8 10 11 0 2 -4 4 -10 4 -5 0 -10 -5 -10 -11z"/>
 <path d="M370 500 c0 -5 5 -10 10 -10 6 0 10 5 10 10 0 6 -4 10 -10 10 -5 0 -10 -4 -10 -10z"/>
 <path d="M483 373 c4 -3 10 -3 14 0 3 4 0 7 -7 7 -7 0 -10 -3 -7 -7z"/>
 </g>
<g id="layer115" fill="#f5bcc2" stroke="none">
 <path d="M385 548 c9 -34 27 -71 44 -91 13 -16 13 -19 1 -28 -13 -9 -13 -10 0 -7 8 1 34 -10 57 -25 24 -15 55 -27 69 -27 39 0 97 19 125 42 l24 19 -32 -15 c-43 -21 -82 -20 -117 3 -39 26 -55 57 -56 109 l0 42 -61 0 c-58 0 -60 -1 -54 -22z"/>
 <path d="M570 514 l0 -55 43 3 c35 3 43 7 45 26 2 13 -2 30 -8 38 -10 11 -10 17 0 29 10 13 9 15 -8 15 -12 0 -24 -4 -27 -10 -3 -5 -11 -10 -16 -10 -6 0 -7 5 -4 10 3 6 -1 10 -9 10 -13 0 -16 -12 -16 -56z m58 -15 c-2 -6 -8 -10 -13 -10 -5 0 -11 4 -13 10 -2 6 4 11 13 11 9 0 15 -5 13 -11z"/>
 <path d="M682 518 c3 -50 4 -53 33 -56 46 -6 73 54 45 98 -9 13 -11 13 -20 0 -8 -12 -13 -13 -30 -2 -30 18 -31 16 -28 -40z m58 -12 c0 -18 -16 -29 -30 -21 -13 8 -1 35 16 35 8 0 14 -6 14 -14z"/>
 <path d="M780 515 c0 -42 3 -55 15 -55 12 0 15 13 15 55 0 42 -3 55 -15 55 -12 0 -15 -13 -15 -55z"/>
 <path d="M830 515 c0 -43 3 -55 16 -55 10 0 15 8 14 23 -4 45 0 57 20 57 11 0 20 7 20 15 0 10 -11 15 -35 15 l-35 0 0 -55z"/>
 <path d="M913 558 c2 -7 13 -13 25 -13 34 -1 36 -13 3 -20 -49 -11 -36 -65 16 -65 30 0 31 30 1 31 -22 1 -22 1 2 8 28 8 40 48 18 62 -21 14 -70 11 -65 -3z"/>
 <path d="M510 549 c0 -5 5 -7 10 -4 6 3 10 8 10 11 0 2 -4 4 -10 4 -5 0 -10 -5 -10 -11z"/>
 <path d="M370 500 c0 -5 5 -10 10 -10 6 0 10 5 10 10 0 6 -4 10 -10 10 -5 0 -10 -4 -10 -10z"/>
 <path d="M483 373 c4 -3 10 -3 14 0 3 4 0 7 -7 7 -7 0 -10 -3 -7 -7z"/>
 </g>
<g id="layer116" fill="#f5d1d0" stroke="none">
 <path d="M386 543 c4 -16 18 -45 32 -67 19 -31 21 -40 10 -48 -10 -8 -10 -9 2 -5 8 2 34 -9 57 -24 23 -16 54 -29 69 -29 39 0 97 19 125 42 l24 19 -32 -15 c-88 -43 -173 12 -173 114 l0 40 -60 0 -60 0 6 -27z"/>
 <path d="M570 514 l0 -55 43 3 c35 3 43 7 45 26 2 13 -2 30 -8 38 -10 11 -10 17 0 29 10 13 9 15 -8 15 -12 0 -24 -4 -27 -10 -3 -5 -11 -10 -16 -10 -6 0 -7 5 -4 10 3 6 -1 10 -9 10 -13 0 -16 -12 -16 -56z m56 -5 c8 -14 -11 -33 -25 -25 -11 7 -4 36 9 36 5 0 12 -5 16 -11z"/>
 <path d="M682 518 c3 -50 4 -53 33 -56 46 -6 73 54 45 98 -9 13 -11 13 -20 0 -8 -12 -13 -13 -30 -2 -30 18 -31 16 -28 -40z m58 -12 c0 -8 -5 -18 -11 -22 -14 -8 -33 11 -25 25 10 16 36 13 36 -3z"/>
 <path d="M780 515 c0 -42 3 -55 15 -55 12 0 15 13 15 55 0 42 -3 55 -15 55 -12 0 -15 -13 -15 -55z"/>
 <path d="M830 515 c0 -65 17 -74 22 -12 2 34 7 42 22 42 11 0 21 6 23 13 3 8 -7 12 -31 12 l-36 0 0 -55z"/>
 <path d="M913 558 c2 -7 13 -13 25 -13 12 0 22 -5 22 -10 0 -10 -4 -11 -35 -14 -18 -1 -20 -32 -3 -49 17 -17 58 -15 58 2 0 8 -8 13 -17 11 -10 -1 -22 0 -28 4 -5 3 4 8 20 11 22 4 31 11 33 29 4 28 -12 41 -51 41 -19 0 -27 -4 -24 -12z"/>
 <path d="M513 553 c4 -3 10 -3 14 0 3 4 0 7 -7 7 -7 0 -10 -3 -7 -7z"/>
 <path d="M370 500 c0 -5 5 -10 10 -10 6 0 10 5 10 10 0 6 -4 10 -10 10 -5 0 -10 -4 -10 -10z"/>
 <path d="M483 373 c4 -3 10 -3 14 0 3 4 0 7 -7 7 -7 0 -10 -3 -7 -7z"/>
 </g>
<g id="layer117" fill="#fcdbe3" stroke="none">
 <path d="M386 548 c31 -102 111 -178 186 -178 24 0 128 45 128 55 0 3 -13 -1 -30 -10 -83 -43 -168 13 -172 115 l-1 40 -59 0 c-57 0 -59 -1 -52 -22z"/>
 <path d="M570 514 l0 -55 43 3 c38 3 42 6 45 31 2 18 -2 29 -13 33 -14 6 -14 8 1 25 16 18 16 19 -2 19 -11 0 -26 -6 -33 -12 -11 -10 -14 -10 -18 0 -11 30 -23 7 -23 -44z m56 -5 c10 -17 -13 -36 -27 -22 -12 12 -4 33 11 33 5 0 12 -5 16 -11z"/>
 <path d="M680 521 c0 -49 9 -61 45 -61 22 0 45 30 45 58 0 33 -19 64 -27 45 -6 -15 -43 -17 -43 -3 0 6 -4 10 -10 10 -5 0 -10 -22 -10 -49z m58 -18 c-2 -10 -10 -18 -18 -18 -8 0 -16 8 -18 18 -2 12 3 17 18 17 15 0 20 -5 18 -17z"/>
 <path d="M780 515 c0 -42 3 -55 15 -55 12 0 15 13 15 55 0 42 -3 55 -15 55 -12 0 -15 -13 -15 -55z"/>
 <path d="M830 515 c0 -65 17 -74 22 -12 2 35 7 43 26 45 35 5 26 22 -13 22 l-35 0 0 -55z"/>
 <path d="M910 561 c0 -5 11 -11 25 -13 35 -4 36 -22 3 -26 -48 -6 -30 -62 19 -62 28 0 31 17 3 22 -12 2 -21 8 -20 13 0 10 4 11 35 14 18 1 20 32 3 49 -14 14 -68 16 -68 3z"/>
 </g>
<g id="layer118" fill="#f8e7dc" stroke="none">
 <path d="M389 542 c21 -72 72 -135 128 -158 43 -18 70 -17 118 5 l40 18 -51 -5 c-48 -4 -53 -2 -88 32 -20 20 -37 47 -37 59 -1 12 -2 34 -3 50 -1 26 -3 27 -58 27 l-57 0 8 -28z"/>
 <path d="M570 514 l0 -55 43 3 c38 3 42 6 45 31 2 18 -2 29 -13 33 -14 6 -14 8 1 25 16 18 16 19 -1 19 -10 0 -27 -7 -37 -17 -17 -15 -18 -15 -18 0 0 10 -4 17 -10 17 -5 0 -10 -25 -10 -56z m56 -5 c10 -17 -13 -36 -27 -22 -12 12 -4 33 11 33 5 0 12 -5 16 -11z"/>
 <path d="M680 521 c0 -53 16 -69 56 -54 25 9 34 23 34 53 0 31 -19 61 -27 43 -6 -15 -43 -17 -43 -3 0 6 -4 10 -10 10 -5 0 -10 -22 -10 -49z m58 -18 c-2 -10 -10 -18 -18 -18 -8 0 -16 8 -18 18 -2 12 3 17 18 17 15 0 20 -5 18 -17z"/>
 <path d="M781 515 c1 -40 5 -55 15 -55 10 0 14 15 14 55 0 42 -4 55 -15 55 -11 0 -14 -13 -14 -55z"/>
 <path d="M830 515 c0 -65 17 -74 22 -12 2 35 7 43 26 45 31 5 17 22 -19 22 -29 0 -29 -1 -29 -55z"/>
 <path d="M910 561 c0 -5 11 -11 25 -13 35 -4 36 -22 3 -26 -48 -6 -30 -62 19 -62 28 0 31 17 3 22 -29 4 -26 22 5 26 27 4 34 29 13 50 -14 14 -68 16 -68 3z"/>
 </g>
<g id="layer119" fill="#fcfaf9" stroke="none">
 <path d="M389 542 c27 -91 112 -172 182 -172 11 0 17 4 14 10 -3 5 0 7 8 4 8 -3 30 1 48 9 l34 14 -47 -5 c-41 -4 -53 -1 -83 22 -36 27 -61 91 -52 127 5 17 -1 19 -53 19 l-59 0 8 -28z"/>
 <path d="M578 564 c-5 -4 -8 -29 -8 -56 0 -43 2 -48 23 -48 61 1 87 31 53 62 -12 11 -12 15 1 31 14 15 14 17 1 17 -9 0 -21 -7 -28 -15 -16 -19 -28 -19 -32 1 -2 9 -6 12 -10 8z m56 -59 c3 -9 -1 -18 -10 -22 -19 -7 -39 11 -30 26 10 16 33 13 40 -4z"/>
 <path d="M680 525 c0 -34 5 -47 19 -55 21 -10 51 -4 63 14 11 15 9 58 -2 76 -8 13 -11 12 -23 -4 -12 -17 -15 -17 -29 -2 -24 24 -28 20 -28 -29z m60 -26 c0 -14 -5 -19 -17 -17 -26 5 -29 38 -4 38 15 0 21 -6 21 -21z"/>
 <path d="M785 548 c-3 -13 -3 -32 -1 -43 3 -11 5 -26 5 -32 1 -7 6 -13 11 -13 6 0 10 25 10 55 0 55 -15 75 -25 33z"/>
 <path d="M830 515 c0 -30 5 -55 10 -55 6 0 10 18 10 41 0 32 4 42 20 46 30 8 24 23 -10 23 -30 0 -30 -1 -30 -55z"/>
 <path d="M910 561 c0 -5 11 -11 25 -13 35 -4 36 -22 3 -26 -21 -3 -27 -8 -25 -22 2 -11 6 -22 10 -26 10 -11 57 -13 57 -3 0 5 -11 9 -25 9 -16 0 -25 6 -25 15 0 10 10 15 30 15 22 0 30 5 30 18 0 10 -5 23 -12 30 -14 14 -68 16 -68 3z"/>
 </g>

</svg>